<?xml version="1.0" encoding="utf-8" standalone="no"?>
<!DOCTYPE svg PUBLIC "-//W3C//DTD SVG 1.1//EN"
  "http://www.w3.org/Graphics/SVG/1.1/DTD/svg11.dtd">
<!-- Created with matplotlib (https://matplotlib.org/) -->
<svg height="552.24pt" version="1.1" viewBox="0 0 1105.92 552.24" width="1105.92pt" xmlns="http://www.w3.org/2000/svg" xmlns:xlink="http://www.w3.org/1999/xlink">
 <defs>
  <style type="text/css">
*{stroke-linecap:butt;stroke-linejoin:round;}
  </style>
 </defs>
 <g id="figure_1">
  <g id="patch_1">
   <path d="M 0 552.24 
L 1105.92 552.24 
L 1105.92 0 
L 0 0 
z
" style="fill:#ffffff;"/>
  </g>
  <g id="axes_1">
   <g id="patch_2">
    <path d="M 138.24 491.4936 
L 995.328 491.4936 
L 995.328 66.2688 
L 138.24 66.2688 
z
" style="fill:#ffffff;"/>
   </g>
   <g id="matplotlib.axis_1">
    <g id="xtick_1">
     <g id="line2d_1">
      <defs>
       <path d="M 0 0 
L 0 3.5 
" id="mc919d4cdea" style="stroke:#000000;stroke-width:0.8;"/>
      </defs>
      <g>
       <use style="stroke:#000000;stroke-width:0.8;" x="177.120552" xlink:href="#mc919d4cdea" y="491.4936"/>
      </g>
     </g>
     <g id="text_1">
      <!-- 0 -->
      <defs>
       <path d="M 31.78125 66.40625 
Q 24.171875 66.40625 20.328125 58.90625 
Q 16.5 51.421875 16.5 36.375 
Q 16.5 21.390625 20.328125 13.890625 
Q 24.171875 6.390625 31.78125 6.390625 
Q 39.453125 6.390625 43.28125 13.890625 
Q 47.125 21.390625 47.125 36.375 
Q 47.125 51.421875 43.28125 58.90625 
Q 39.453125 66.40625 31.78125 66.40625 
z
M 31.78125 74.21875 
Q 44.046875 74.21875 50.515625 64.515625 
Q 56.984375 54.828125 56.984375 36.375 
Q 56.984375 17.96875 50.515625 8.265625 
Q 44.046875 -1.421875 31.78125 -1.421875 
Q 19.53125 -1.421875 13.0625 8.265625 
Q 6.59375 17.96875 6.59375 36.375 
Q 6.59375 54.828125 13.0625 64.515625 
Q 19.53125 74.21875 31.78125 74.21875 
z
" id="DejaVuSans-48"/>
      </defs>
      <g transform="translate(173.939302 506.092038)scale(0.1 -0.1)">
       <use xlink:href="#DejaVuSans-48"/>
      </g>
     </g>
    </g>
    <g id="xtick_2">
     <g id="line2d_2">
      <g>
       <use style="stroke:#000000;stroke-width:0.8;" x="333.107929" xlink:href="#mc919d4cdea" y="491.4936"/>
      </g>
     </g>
     <g id="text_2">
      <!-- 2000 -->
      <defs>
       <path d="M 19.1875 8.296875 
L 53.609375 8.296875 
L 53.609375 0 
L 7.328125 0 
L 7.328125 8.296875 
Q 12.9375 14.109375 22.625 23.890625 
Q 32.328125 33.6875 34.8125 36.53125 
Q 39.546875 41.84375 41.421875 45.53125 
Q 43.3125 49.21875 43.3125 52.78125 
Q 43.3125 58.59375 39.234375 62.25 
Q 35.15625 65.921875 28.609375 65.921875 
Q 23.96875 65.921875 18.8125 64.3125 
Q 13.671875 62.703125 7.8125 59.421875 
L 7.8125 69.390625 
Q 13.765625 71.78125 18.9375 73 
Q 24.125 74.21875 28.421875 74.21875 
Q 39.75 74.21875 46.484375 68.546875 
Q 53.21875 62.890625 53.21875 53.421875 
Q 53.21875 48.921875 51.53125 44.890625 
Q 49.859375 40.875 45.40625 35.40625 
Q 44.1875 33.984375 37.640625 27.21875 
Q 31.109375 20.453125 19.1875 8.296875 
z
" id="DejaVuSans-50"/>
      </defs>
      <g transform="translate(320.382929 506.092038)scale(0.1 -0.1)">
       <use xlink:href="#DejaVuSans-50"/>
       <use x="63.623047" xlink:href="#DejaVuSans-48"/>
       <use x="127.246094" xlink:href="#DejaVuSans-48"/>
       <use x="190.869141" xlink:href="#DejaVuSans-48"/>
      </g>
     </g>
    </g>
    <g id="xtick_3">
     <g id="line2d_3">
      <g>
       <use style="stroke:#000000;stroke-width:0.8;" x="489.095306" xlink:href="#mc919d4cdea" y="491.4936"/>
      </g>
     </g>
     <g id="text_3">
      <!-- 4000 -->
      <defs>
       <path d="M 37.796875 64.3125 
L 12.890625 25.390625 
L 37.796875 25.390625 
z
M 35.203125 72.90625 
L 47.609375 72.90625 
L 47.609375 25.390625 
L 58.015625 25.390625 
L 58.015625 17.1875 
L 47.609375 17.1875 
L 47.609375 0 
L 37.796875 0 
L 37.796875 17.1875 
L 4.890625 17.1875 
L 4.890625 26.703125 
z
" id="DejaVuSans-52"/>
      </defs>
      <g transform="translate(476.370306 506.092038)scale(0.1 -0.1)">
       <use xlink:href="#DejaVuSans-52"/>
       <use x="63.623047" xlink:href="#DejaVuSans-48"/>
       <use x="127.246094" xlink:href="#DejaVuSans-48"/>
       <use x="190.869141" xlink:href="#DejaVuSans-48"/>
      </g>
     </g>
    </g>
    <g id="xtick_4">
     <g id="line2d_4">
      <g>
       <use style="stroke:#000000;stroke-width:0.8;" x="645.082683" xlink:href="#mc919d4cdea" y="491.4936"/>
      </g>
     </g>
     <g id="text_4">
      <!-- 6000 -->
      <defs>
       <path d="M 33.015625 40.375 
Q 26.375 40.375 22.484375 35.828125 
Q 18.609375 31.296875 18.609375 23.390625 
Q 18.609375 15.53125 22.484375 10.953125 
Q 26.375 6.390625 33.015625 6.390625 
Q 39.65625 6.390625 43.53125 10.953125 
Q 47.40625 15.53125 47.40625 23.390625 
Q 47.40625 31.296875 43.53125 35.828125 
Q 39.65625 40.375 33.015625 40.375 
z
M 52.59375 71.296875 
L 52.59375 62.3125 
Q 48.875 64.0625 45.09375 64.984375 
Q 41.3125 65.921875 37.59375 65.921875 
Q 27.828125 65.921875 22.671875 59.328125 
Q 17.53125 52.734375 16.796875 39.40625 
Q 19.671875 43.65625 24.015625 45.921875 
Q 28.375 48.1875 33.59375 48.1875 
Q 44.578125 48.1875 50.953125 41.515625 
Q 57.328125 34.859375 57.328125 23.390625 
Q 57.328125 12.15625 50.6875 5.359375 
Q 44.046875 -1.421875 33.015625 -1.421875 
Q 20.359375 -1.421875 13.671875 8.265625 
Q 6.984375 17.96875 6.984375 36.375 
Q 6.984375 53.65625 15.1875 63.9375 
Q 23.390625 74.21875 37.203125 74.21875 
Q 40.921875 74.21875 44.703125 73.484375 
Q 48.484375 72.75 52.59375 71.296875 
z
" id="DejaVuSans-54"/>
      </defs>
      <g transform="translate(632.357683 506.092038)scale(0.1 -0.1)">
       <use xlink:href="#DejaVuSans-54"/>
       <use x="63.623047" xlink:href="#DejaVuSans-48"/>
       <use x="127.246094" xlink:href="#DejaVuSans-48"/>
       <use x="190.869141" xlink:href="#DejaVuSans-48"/>
      </g>
     </g>
    </g>
    <g id="xtick_5">
     <g id="line2d_5">
      <g>
       <use style="stroke:#000000;stroke-width:0.8;" x="801.07006" xlink:href="#mc919d4cdea" y="491.4936"/>
      </g>
     </g>
     <g id="text_5">
      <!-- 8000 -->
      <defs>
       <path d="M 31.78125 34.625 
Q 24.75 34.625 20.71875 30.859375 
Q 16.703125 27.09375 16.703125 20.515625 
Q 16.703125 13.921875 20.71875 10.15625 
Q 24.75 6.390625 31.78125 6.390625 
Q 38.8125 6.390625 42.859375 10.171875 
Q 46.921875 13.96875 46.921875 20.515625 
Q 46.921875 27.09375 42.890625 30.859375 
Q 38.875 34.625 31.78125 34.625 
z
M 21.921875 38.8125 
Q 15.578125 40.375 12.03125 44.71875 
Q 8.5 49.078125 8.5 55.328125 
Q 8.5 64.0625 14.71875 69.140625 
Q 20.953125 74.21875 31.78125 74.21875 
Q 42.671875 74.21875 48.875 69.140625 
Q 55.078125 64.0625 55.078125 55.328125 
Q 55.078125 49.078125 51.53125 44.71875 
Q 48 40.375 41.703125 38.8125 
Q 48.828125 37.15625 52.796875 32.3125 
Q 56.78125 27.484375 56.78125 20.515625 
Q 56.78125 9.90625 50.3125 4.234375 
Q 43.84375 -1.421875 31.78125 -1.421875 
Q 19.734375 -1.421875 13.25 4.234375 
Q 6.78125 9.90625 6.78125 20.515625 
Q 6.78125 27.484375 10.78125 32.3125 
Q 14.796875 37.15625 21.921875 38.8125 
z
M 18.3125 54.390625 
Q 18.3125 48.734375 21.84375 45.5625 
Q 25.390625 42.390625 31.78125 42.390625 
Q 38.140625 42.390625 41.71875 45.5625 
Q 45.3125 48.734375 45.3125 54.390625 
Q 45.3125 60.0625 41.71875 63.234375 
Q 38.140625 66.40625 31.78125 66.40625 
Q 25.390625 66.40625 21.84375 63.234375 
Q 18.3125 60.0625 18.3125 54.390625 
z
" id="DejaVuSans-56"/>
      </defs>
      <g transform="translate(788.34506 506.092038)scale(0.1 -0.1)">
       <use xlink:href="#DejaVuSans-56"/>
       <use x="63.623047" xlink:href="#DejaVuSans-48"/>
       <use x="127.246094" xlink:href="#DejaVuSans-48"/>
       <use x="190.869141" xlink:href="#DejaVuSans-48"/>
      </g>
     </g>
    </g>
    <g id="xtick_6">
     <g id="line2d_6">
      <g>
       <use style="stroke:#000000;stroke-width:0.8;" x="957.057437" xlink:href="#mc919d4cdea" y="491.4936"/>
      </g>
     </g>
     <g id="text_6">
      <!-- 10000 -->
      <defs>
       <path d="M 12.40625 8.296875 
L 28.515625 8.296875 
L 28.515625 63.921875 
L 10.984375 60.40625 
L 10.984375 69.390625 
L 28.421875 72.90625 
L 38.28125 72.90625 
L 38.28125 8.296875 
L 54.390625 8.296875 
L 54.390625 0 
L 12.40625 0 
z
" id="DejaVuSans-49"/>
      </defs>
      <g transform="translate(941.151187 506.092038)scale(0.1 -0.1)">
       <use xlink:href="#DejaVuSans-49"/>
       <use x="63.623047" xlink:href="#DejaVuSans-48"/>
       <use x="127.246094" xlink:href="#DejaVuSans-48"/>
       <use x="190.869141" xlink:href="#DejaVuSans-48"/>
       <use x="254.492188" xlink:href="#DejaVuSans-48"/>
      </g>
     </g>
    </g>
    <g id="text_7">
     <!-- Time (ms) -->
     <defs>
      <path d="M -0.296875 72.90625 
L 61.375 72.90625 
L 61.375 64.59375 
L 35.5 64.59375 
L 35.5 0 
L 25.59375 0 
L 25.59375 64.59375 
L -0.296875 64.59375 
z
" id="DejaVuSans-84"/>
      <path d="M 9.421875 54.6875 
L 18.40625 54.6875 
L 18.40625 0 
L 9.421875 0 
z
M 9.421875 75.984375 
L 18.40625 75.984375 
L 18.40625 64.59375 
L 9.421875 64.59375 
z
" id="DejaVuSans-105"/>
      <path d="M 52 44.1875 
Q 55.375 50.25 60.0625 53.125 
Q 64.75 56 71.09375 56 
Q 79.640625 56 84.28125 50.015625 
Q 88.921875 44.046875 88.921875 33.015625 
L 88.921875 0 
L 79.890625 0 
L 79.890625 32.71875 
Q 79.890625 40.578125 77.09375 44.375 
Q 74.3125 48.1875 68.609375 48.1875 
Q 61.625 48.1875 57.5625 43.546875 
Q 53.515625 38.921875 53.515625 30.90625 
L 53.515625 0 
L 44.484375 0 
L 44.484375 32.71875 
Q 44.484375 40.625 41.703125 44.40625 
Q 38.921875 48.1875 33.109375 48.1875 
Q 26.21875 48.1875 22.15625 43.53125 
Q 18.109375 38.875 18.109375 30.90625 
L 18.109375 0 
L 9.078125 0 
L 9.078125 54.6875 
L 18.109375 54.6875 
L 18.109375 46.1875 
Q 21.1875 51.21875 25.484375 53.609375 
Q 29.78125 56 35.6875 56 
Q 41.65625 56 45.828125 52.96875 
Q 50 49.953125 52 44.1875 
z
" id="DejaVuSans-109"/>
      <path d="M 56.203125 29.59375 
L 56.203125 25.203125 
L 14.890625 25.203125 
Q 15.484375 15.921875 20.484375 11.0625 
Q 25.484375 6.203125 34.421875 6.203125 
Q 39.59375 6.203125 44.453125 7.46875 
Q 49.3125 8.734375 54.109375 11.28125 
L 54.109375 2.78125 
Q 49.265625 0.734375 44.1875 -0.34375 
Q 39.109375 -1.421875 33.890625 -1.421875 
Q 20.796875 -1.421875 13.15625 6.1875 
Q 5.515625 13.8125 5.515625 26.8125 
Q 5.515625 40.234375 12.765625 48.109375 
Q 20.015625 56 32.328125 56 
Q 43.359375 56 49.78125 48.890625 
Q 56.203125 41.796875 56.203125 29.59375 
z
M 47.21875 32.234375 
Q 47.125 39.59375 43.09375 43.984375 
Q 39.0625 48.390625 32.421875 48.390625 
Q 24.90625 48.390625 20.390625 44.140625 
Q 15.875 39.890625 15.1875 32.171875 
z
" id="DejaVuSans-101"/>
      <path id="DejaVuSans-32"/>
      <path d="M 31 75.875 
Q 24.46875 64.65625 21.28125 53.65625 
Q 18.109375 42.671875 18.109375 31.390625 
Q 18.109375 20.125 21.3125 9.0625 
Q 24.515625 -2 31 -13.1875 
L 23.1875 -13.1875 
Q 15.875 -1.703125 12.234375 9.375 
Q 8.59375 20.453125 8.59375 31.390625 
Q 8.59375 42.28125 12.203125 53.3125 
Q 15.828125 64.359375 23.1875 75.875 
z
" id="DejaVuSans-40"/>
      <path d="M 44.28125 53.078125 
L 44.28125 44.578125 
Q 40.484375 46.53125 36.375 47.5 
Q 32.28125 48.484375 27.875 48.484375 
Q 21.1875 48.484375 17.84375 46.4375 
Q 14.5 44.390625 14.5 40.28125 
Q 14.5 37.15625 16.890625 35.375 
Q 19.28125 33.59375 26.515625 31.984375 
L 29.59375 31.296875 
Q 39.15625 29.25 43.1875 25.515625 
Q 47.21875 21.78125 47.21875 15.09375 
Q 47.21875 7.46875 41.1875 3.015625 
Q 35.15625 -1.421875 24.609375 -1.421875 
Q 20.21875 -1.421875 15.453125 -0.5625 
Q 10.6875 0.296875 5.421875 2 
L 5.421875 11.28125 
Q 10.40625 8.6875 15.234375 7.390625 
Q 20.0625 6.109375 24.8125 6.109375 
Q 31.15625 6.109375 34.5625 8.28125 
Q 37.984375 10.453125 37.984375 14.40625 
Q 37.984375 18.0625 35.515625 20.015625 
Q 33.0625 21.96875 24.703125 23.78125 
L 21.578125 24.515625 
Q 13.234375 26.265625 9.515625 29.90625 
Q 5.8125 33.546875 5.8125 39.890625 
Q 5.8125 47.609375 11.28125 51.796875 
Q 16.75 56 26.8125 56 
Q 31.78125 56 36.171875 55.265625 
Q 40.578125 54.546875 44.28125 53.078125 
z
" id="DejaVuSans-115"/>
      <path d="M 8.015625 75.875 
L 15.828125 75.875 
Q 23.140625 64.359375 26.78125 53.3125 
Q 30.421875 42.28125 30.421875 31.390625 
Q 30.421875 20.453125 26.78125 9.375 
Q 23.140625 -1.703125 15.828125 -13.1875 
L 8.015625 -13.1875 
Q 14.5 -2 17.703125 9.0625 
Q 20.90625 20.125 20.90625 31.390625 
Q 20.90625 42.671875 17.703125 53.65625 
Q 14.5 64.65625 8.015625 75.875 
z
" id="DejaVuSans-41"/>
     </defs>
     <g transform="translate(541.430875 519.770162)scale(0.1 -0.1)">
      <use xlink:href="#DejaVuSans-84"/>
      <use x="61.037109" xlink:href="#DejaVuSans-105"/>
      <use x="88.820312" xlink:href="#DejaVuSans-109"/>
      <use x="186.232422" xlink:href="#DejaVuSans-101"/>
      <use x="247.755859" xlink:href="#DejaVuSans-32"/>
      <use x="279.542969" xlink:href="#DejaVuSans-40"/>
      <use x="318.556641" xlink:href="#DejaVuSans-109"/>
      <use x="415.96875" xlink:href="#DejaVuSans-115"/>
      <use x="468.068359" xlink:href="#DejaVuSans-41"/>
     </g>
    </g>
   </g>
   <g id="matplotlib.axis_2">
    <g id="ytick_1">
     <g id="line2d_7">
      <defs>
       <path d="M 0 0 
L -3.5 0 
" id="m67659f9098" style="stroke:#000000;stroke-width:0.8;"/>
      </defs>
      <g>
       <use style="stroke:#000000;stroke-width:0.8;" x="138.24" xlink:href="#m67659f9098" y="464.037396"/>
      </g>
     </g>
     <g id="text_8">
      <!-- 100 -->
      <g transform="translate(112.1525 467.836615)scale(0.1 -0.1)">
       <use xlink:href="#DejaVuSans-49"/>
       <use x="63.623047" xlink:href="#DejaVuSans-48"/>
       <use x="127.246094" xlink:href="#DejaVuSans-48"/>
      </g>
     </g>
    </g>
    <g id="ytick_2">
     <g id="line2d_8">
      <g>
       <use style="stroke:#000000;stroke-width:0.8;" x="138.24" xlink:href="#m67659f9098" y="388.349419"/>
      </g>
     </g>
     <g id="text_9">
      <!-- 110 -->
      <g transform="translate(112.1525 392.148638)scale(0.1 -0.1)">
       <use xlink:href="#DejaVuSans-49"/>
       <use x="63.623047" xlink:href="#DejaVuSans-49"/>
       <use x="127.246094" xlink:href="#DejaVuSans-48"/>
      </g>
     </g>
    </g>
    <g id="ytick_3">
     <g id="line2d_9">
      <g>
       <use style="stroke:#000000;stroke-width:0.8;" x="138.24" xlink:href="#m67659f9098" y="312.661442"/>
      </g>
     </g>
     <g id="text_10">
      <!-- 120 -->
      <g transform="translate(112.1525 316.46066)scale(0.1 -0.1)">
       <use xlink:href="#DejaVuSans-49"/>
       <use x="63.623047" xlink:href="#DejaVuSans-50"/>
       <use x="127.246094" xlink:href="#DejaVuSans-48"/>
      </g>
     </g>
    </g>
    <g id="ytick_4">
     <g id="line2d_10">
      <g>
       <use style="stroke:#000000;stroke-width:0.8;" x="138.24" xlink:href="#m67659f9098" y="236.973464"/>
      </g>
     </g>
     <g id="text_11">
      <!-- 130 -->
      <defs>
       <path d="M 40.578125 39.3125 
Q 47.65625 37.796875 51.625 33 
Q 55.609375 28.21875 55.609375 21.1875 
Q 55.609375 10.40625 48.1875 4.484375 
Q 40.765625 -1.421875 27.09375 -1.421875 
Q 22.515625 -1.421875 17.65625 -0.515625 
Q 12.796875 0.390625 7.625 2.203125 
L 7.625 11.71875 
Q 11.71875 9.328125 16.59375 8.109375 
Q 21.484375 6.890625 26.8125 6.890625 
Q 36.078125 6.890625 40.9375 10.546875 
Q 45.796875 14.203125 45.796875 21.1875 
Q 45.796875 27.640625 41.28125 31.265625 
Q 36.765625 34.90625 28.71875 34.90625 
L 20.21875 34.90625 
L 20.21875 43.015625 
L 29.109375 43.015625 
Q 36.375 43.015625 40.234375 45.921875 
Q 44.09375 48.828125 44.09375 54.296875 
Q 44.09375 59.90625 40.109375 62.90625 
Q 36.140625 65.921875 28.71875 65.921875 
Q 24.65625 65.921875 20.015625 65.03125 
Q 15.375 64.15625 9.8125 62.3125 
L 9.8125 71.09375 
Q 15.4375 72.65625 20.34375 73.4375 
Q 25.25 74.21875 29.59375 74.21875 
Q 40.828125 74.21875 47.359375 69.109375 
Q 53.90625 64.015625 53.90625 55.328125 
Q 53.90625 49.265625 50.4375 45.09375 
Q 46.96875 40.921875 40.578125 39.3125 
z
" id="DejaVuSans-51"/>
      </defs>
      <g transform="translate(112.1525 240.772683)scale(0.1 -0.1)">
       <use xlink:href="#DejaVuSans-49"/>
       <use x="63.623047" xlink:href="#DejaVuSans-51"/>
       <use x="127.246094" xlink:href="#DejaVuSans-48"/>
      </g>
     </g>
    </g>
    <g id="ytick_5">
     <g id="line2d_11">
      <g>
       <use style="stroke:#000000;stroke-width:0.8;" x="138.24" xlink:href="#m67659f9098" y="161.285487"/>
      </g>
     </g>
     <g id="text_12">
      <!-- 140 -->
      <g transform="translate(112.1525 165.084705)scale(0.1 -0.1)">
       <use xlink:href="#DejaVuSans-49"/>
       <use x="63.623047" xlink:href="#DejaVuSans-52"/>
       <use x="127.246094" xlink:href="#DejaVuSans-48"/>
      </g>
     </g>
    </g>
    <g id="ytick_6">
     <g id="line2d_12">
      <g>
       <use style="stroke:#000000;stroke-width:0.8;" x="138.24" xlink:href="#m67659f9098" y="85.597509"/>
      </g>
     </g>
     <g id="text_13">
      <!-- 150 -->
      <defs>
       <path d="M 10.796875 72.90625 
L 49.515625 72.90625 
L 49.515625 64.59375 
L 19.828125 64.59375 
L 19.828125 46.734375 
Q 21.96875 47.46875 24.109375 47.828125 
Q 26.265625 48.1875 28.421875 48.1875 
Q 40.625 48.1875 47.75 41.5 
Q 54.890625 34.8125 54.890625 23.390625 
Q 54.890625 11.625 47.5625 5.09375 
Q 40.234375 -1.421875 26.90625 -1.421875 
Q 22.3125 -1.421875 17.546875 -0.640625 
Q 12.796875 0.140625 7.71875 1.703125 
L 7.71875 11.625 
Q 12.109375 9.234375 16.796875 8.0625 
Q 21.484375 6.890625 26.703125 6.890625 
Q 35.15625 6.890625 40.078125 11.328125 
Q 45.015625 15.765625 45.015625 23.390625 
Q 45.015625 31 40.078125 35.4375 
Q 35.15625 39.890625 26.703125 39.890625 
Q 22.75 39.890625 18.8125 39.015625 
Q 14.890625 38.140625 10.796875 36.28125 
z
" id="DejaVuSans-53"/>
      </defs>
      <g transform="translate(112.1525 89.396728)scale(0.1 -0.1)">
       <use xlink:href="#DejaVuSans-49"/>
       <use x="63.623047" xlink:href="#DejaVuSans-53"/>
       <use x="127.246094" xlink:href="#DejaVuSans-48"/>
      </g>
     </g>
    </g>
    <g id="text_14">
     <!-- Presure (MPa) -->
     <defs>
      <path d="M 19.671875 64.796875 
L 19.671875 37.40625 
L 32.078125 37.40625 
Q 38.96875 37.40625 42.71875 40.96875 
Q 46.484375 44.53125 46.484375 51.125 
Q 46.484375 57.671875 42.71875 61.234375 
Q 38.96875 64.796875 32.078125 64.796875 
z
M 9.8125 72.90625 
L 32.078125 72.90625 
Q 44.34375 72.90625 50.609375 67.359375 
Q 56.890625 61.8125 56.890625 51.125 
Q 56.890625 40.328125 50.609375 34.8125 
Q 44.34375 29.296875 32.078125 29.296875 
L 19.671875 29.296875 
L 19.671875 0 
L 9.8125 0 
z
" id="DejaVuSans-80"/>
      <path d="M 41.109375 46.296875 
Q 39.59375 47.171875 37.8125 47.578125 
Q 36.03125 48 33.890625 48 
Q 26.265625 48 22.1875 43.046875 
Q 18.109375 38.09375 18.109375 28.8125 
L 18.109375 0 
L 9.078125 0 
L 9.078125 54.6875 
L 18.109375 54.6875 
L 18.109375 46.1875 
Q 20.953125 51.171875 25.484375 53.578125 
Q 30.03125 56 36.53125 56 
Q 37.453125 56 38.578125 55.875 
Q 39.703125 55.765625 41.0625 55.515625 
z
" id="DejaVuSans-114"/>
      <path d="M 8.5 21.578125 
L 8.5 54.6875 
L 17.484375 54.6875 
L 17.484375 21.921875 
Q 17.484375 14.15625 20.5 10.265625 
Q 23.53125 6.390625 29.59375 6.390625 
Q 36.859375 6.390625 41.078125 11.03125 
Q 45.3125 15.671875 45.3125 23.6875 
L 45.3125 54.6875 
L 54.296875 54.6875 
L 54.296875 0 
L 45.3125 0 
L 45.3125 8.40625 
Q 42.046875 3.421875 37.71875 1 
Q 33.40625 -1.421875 27.6875 -1.421875 
Q 18.265625 -1.421875 13.375 4.4375 
Q 8.5 10.296875 8.5 21.578125 
z
M 31.109375 56 
z
" id="DejaVuSans-117"/>
      <path d="M 9.8125 72.90625 
L 24.515625 72.90625 
L 43.109375 23.296875 
L 61.8125 72.90625 
L 76.515625 72.90625 
L 76.515625 0 
L 66.890625 0 
L 66.890625 64.015625 
L 48.09375 14.015625 
L 38.1875 14.015625 
L 19.390625 64.015625 
L 19.390625 0 
L 9.8125 0 
z
" id="DejaVuSans-77"/>
      <path d="M 34.28125 27.484375 
Q 23.390625 27.484375 19.1875 25 
Q 14.984375 22.515625 14.984375 16.5 
Q 14.984375 11.71875 18.140625 8.90625 
Q 21.296875 6.109375 26.703125 6.109375 
Q 34.1875 6.109375 38.703125 11.40625 
Q 43.21875 16.703125 43.21875 25.484375 
L 43.21875 27.484375 
z
M 52.203125 31.203125 
L 52.203125 0 
L 43.21875 0 
L 43.21875 8.296875 
Q 40.140625 3.328125 35.546875 0.953125 
Q 30.953125 -1.421875 24.3125 -1.421875 
Q 15.921875 -1.421875 10.953125 3.296875 
Q 6 8.015625 6 15.921875 
Q 6 25.140625 12.171875 29.828125 
Q 18.359375 34.515625 30.609375 34.515625 
L 43.21875 34.515625 
L 43.21875 35.40625 
Q 43.21875 41.609375 39.140625 45 
Q 35.0625 48.390625 27.6875 48.390625 
Q 23 48.390625 18.546875 47.265625 
Q 14.109375 46.140625 10.015625 43.890625 
L 10.015625 52.203125 
Q 14.9375 54.109375 19.578125 55.046875 
Q 24.21875 56 28.609375 56 
Q 40.484375 56 46.34375 49.84375 
Q 52.203125 43.703125 52.203125 31.203125 
z
" id="DejaVuSans-97"/>
     </defs>
     <g transform="translate(106.072812 313.810106)rotate(-90)scale(0.1 -0.1)">
      <use xlink:href="#DejaVuSans-80"/>
      <use x="60.287109" xlink:href="#DejaVuSans-114"/>
      <use x="101.369141" xlink:href="#DejaVuSans-101"/>
      <use x="162.892578" xlink:href="#DejaVuSans-115"/>
      <use x="214.992188" xlink:href="#DejaVuSans-117"/>
      <use x="278.371094" xlink:href="#DejaVuSans-114"/>
      <use x="319.453125" xlink:href="#DejaVuSans-101"/>
      <use x="380.976562" xlink:href="#DejaVuSans-32"/>
      <use x="412.763672" xlink:href="#DejaVuSans-40"/>
      <use x="451.777344" xlink:href="#DejaVuSans-77"/>
      <use x="538.056641" xlink:href="#DejaVuSans-80"/>
      <use x="598.296875" xlink:href="#DejaVuSans-97"/>
      <use x="659.576172" xlink:href="#DejaVuSans-41"/>
     </g>
    </g>
   </g>
   <g id="line2d_13">
    <path clip-path="url(#pefee9a79a7)" d="M 177.198545 464.038214 
L 177.232239 465.560001 
L 177.403903 472.1652 
L 178.001412 472.056927 
L 178.133144 470.008867 
L 178.80311 469.900741 
L 178.934841 467.855467 
L 179.604807 467.747488 
L 179.736616 465.697311 
L 180.406582 465.589482 
L 180.538469 463.534449 
L 181.208435 463.426769 
L 181.340322 461.374607 
L 182.010288 461.267079 
L 182.142253 459.210133 
L 182.812219 459.102757 
L 182.944262 457.041074 
L 183.614228 456.933852 
L 183.746272 454.875128 
L 184.416237 454.76806 
L 184.548359 452.704675 
L 184.935675 452.807838 
L 185.202648 469.922318 
L 185.218324 469.814198 
L 185.350056 467.769036 
L 186.020022 467.661064 
L 186.151831 465.611 
L 186.821797 465.503176 
L 186.953684 463.448257 
L 187.62365 463.340584 
L 187.755537 461.288537 
L 188.425503 461.181014 
L 188.557468 459.124184 
L 189.227434 459.016814 
L 189.359477 456.955248 
L 190.029443 456.848032 
L 190.161564 454.781779 
L 190.83153 454.674717 
L 190.963652 452.611461 
L 191.633617 452.504555 
L 191.765817 450.436686 
L 192.435782 450.329938 
L 192.56806 448.257505 
L 192.735044 448.360905 
L 193.002017 465.514474 
L 193.238025 465.406657 
L 193.369913 463.351865 
L 194.039879 463.244199 
L 194.171844 461.1846 
L 194.84181 461.077085 
L 194.973775 459.020395 
L 195.643741 458.913032 
L 195.775784 456.851608 
L 196.44575 456.744399 
L 196.577871 454.678288 
L 197.247837 454.571234 
L 197.379958 452.508121 
L 198.049924 452.401223 
L 198.182123 450.333498 
L 198.852089 450.226757 
L 198.984366 448.15447 
L 199.654332 448.047888 
L 199.78661 445.97869 
L 200.456575 445.872267 
L 200.518658 443.798584 
L 200.559449 446.660997 
L 200.801619 461.09507 
L 201.258896 460.987561 
L 201.390862 458.930992 
L 202.060828 458.823636 
L 202.192871 456.762333 
L 202.862837 456.65513 
L 202.994958 454.589142 
L 203.664924 454.482094 
L 203.797045 452.419105 
L 204.467011 452.312213 
L 204.59921 450.244613 
L 205.269176 450.137878 
L 205.401453 448.065717 
L 206.071419 447.959141 
L 206.203696 445.89007 
L 206.873662 445.783653 
L 207.006017 443.710097 
L 207.675983 443.603842 
L 207.808416 441.525852 
L 208.333782 441.629611 
L 208.489613 457.54754 
L 208.581178 456.675111 
L 209.280391 456.567914 
L 209.412513 454.502046 
L 210.082478 454.395005 
L 210.2146 452.332136 
L 210.884565 452.22525 
L 211.016765 450.157772 
L 211.686731 450.051043 
L 211.819008 447.979005 
L 212.488974 447.872435 
L 212.621251 445.803487 
L 213.291217 445.697077 
L 213.423572 443.623646 
L 214.093538 443.517397 
L 214.225971 441.439532 
L 214.895937 441.333445 
L 215.028448 439.251198 
L 215.698414 439.145275 
L 215.830925 437.066252 
L 216.133151 437.17025 
L 216.400123 454.422576 
L 216.500891 454.31554 
L 216.633012 452.252781 
L 217.302978 452.145901 
L 217.435177 450.078534 
L 218.105143 449.971812 
L 218.23742 447.899885 
L 218.907386 447.793321 
L 219.039664 445.724486 
L 219.709629 445.618082 
L 219.841985 443.544764 
L 220.51195 443.43852 
L 220.644384 441.360771 
L 221.314349 441.254689 
L 221.446861 439.172558 
L 222.116827 439.066641 
L 222.249338 436.987734 
L 222.919304 436.881981 
L 223.051893 434.798772 
L 223.721859 434.693185 
L 223.854526 432.605727 
L 223.93252 432.709964 
L 224.199492 450.00181 
L 224.524492 449.895093 
L 224.656769 447.823275 
L 225.326735 447.716717 
L 225.459012 445.647991 
L 226.128978 445.541592 
L 226.261333 443.468384 
L 226.931299 443.362147 
L 227.063732 441.284508 
L 227.733698 441.178432 
L 227.866209 439.096413 
L 228.536175 438.990502 
L 228.668686 436.911707 
L 229.338652 436.80596 
L 229.471241 434.722865 
L 230.141207 434.617284 
L 230.273874 432.52994 
L 230.94384 432.424526 
L 231.076585 430.332986 
L 231.731888 430.437345 
L 231.979284 445.575219 
L 232.549184 445.468826 
L 232.68154 443.395723 
L 233.351505 443.28949 
L 233.483939 441.211957 
L 234.153904 441.105887 
L 234.286416 439.023975 
L 234.956382 438.918068 
L 235.088893 436.839381 
L 235.758859 436.733639 
L 235.891448 434.650652 
L 236.561414 434.545077 
L 236.694081 432.457842 
L 237.364047 432.352434 
L 237.496792 430.261004 
L 238.166758 430.155764 
L 238.299503 428.067697 
L 238.969469 427.962628 
L 239.102292 425.870448 
L 239.531257 425.975047 
L 239.771166 443.326738 
L 239.785595 441.923656 
L 239.904691 441.143078 
L 240.574657 441.037013 
L 240.707168 438.955202 
L 241.377134 438.849301 
L 241.509645 436.770715 
L 242.179611 436.664979 
L 242.3122 434.582094 
L 242.982166 434.476524 
L 243.114833 432.389393 
L 243.784799 432.28399 
L 243.917544 430.192664 
L 244.58751 430.08743 
L 244.720255 427.999468 
L 245.390221 427.894404 
L 245.523044 425.80233 
L 246.19301 425.697437 
L 246.325911 423.601305 
L 246.995877 423.496585 
L 247.128856 421.396449 
L 247.330626 421.50129 
L 247.597599 438.892848 
L 247.798822 438.786951 
L 247.931334 436.708458 
L 248.601299 436.602726 
L 248.733889 434.519935 
L 249.403854 434.414369 
L 249.536522 432.327332 
L 250.206487 432.221934 
L 250.339233 430.130703 
L 251.009198 430.025474 
L 251.141944 427.937607 
L 251.81191 427.832547 
L 251.944733 425.74057 
L 252.614699 425.635682 
L 252.7476 423.539646 
L 253.417566 423.434931 
L 253.550545 421.334893 
L 254.220511 421.230352 
L 254.353568 419.126366 
L 255.023534 419.022001 
L 255.11424 416.921564 
L 255.141694 418.33426 
L 255.397045 434.45817 
L 255.826557 434.352609 
L 255.959224 432.265665 
L 256.62919 432.160272 
L 256.761935 430.069135 
L 257.431901 429.963911 
L 257.564646 427.876138 
L 258.234612 427.771084 
L 258.367435 425.679201 
L 259.037401 425.574318 
L 259.170302 423.478379 
L 259.840268 423.373669 
L 259.973247 421.273728 
L 260.643213 421.169192 
L 260.77627 419.065304 
L 261.446236 418.960943 
L 261.579293 416.860605 
L 262.249259 416.756421 
L 262.382394 414.652222 
L 262.929364 414.757428 
L 263.176682 430.012399 
L 263.855149 429.907178 
L 263.987894 427.819493 
L 264.65786 427.714443 
L 264.790683 425.622649 
L 265.460649 425.51777 
L 265.59355 423.42192 
L 266.263516 423.317214 
L 266.396495 421.217363 
L 267.066461 421.112831 
L 267.199518 419.009033 
L 267.869484 418.904677 
L 268.002541 416.80443 
L 268.672507 416.700251 
L 268.805642 414.596143 
L 269.475608 414.492142 
L 269.608821 412.38423 
L 270.278787 412.280409 
L 270.412078 410.16875 
L 270.728733 410.274199 
L 270.995705 427.766205 
L 271.082044 427.661159 
L 271.214867 425.569448 
L 271.884833 425.464573 
L 272.017734 423.368807 
L 272.6877 423.264105 
L 272.820679 421.164338 
L 273.490645 421.05981 
L 273.623702 418.956097 
L 274.293668 418.851746 
L 274.426725 416.751583 
L 275.096691 416.647409 
L 275.229826 414.543387 
L 275.899792 414.43939 
L 276.033005 412.331565 
L 276.702971 412.227749 
L 276.836262 410.116177 
L 277.506306 410.005139 
L 277.639597 407.89728 
L 278.309641 407.786438 
L 278.44301 405.674935 
L 278.528102 405.780628 
L 278.795074 423.313 
L 279.112976 423.208303 
L 279.245955 421.108624 
L 279.915921 421.004101 
L 280.048978 418.900478 
L 280.718944 418.796131 
L 280.852001 416.696058 
L 281.521967 416.591888 
L 281.655103 414.487957 
L 282.325068 414.383965 
L 282.458282 412.276231 
L 283.128247 412.172419 
L 283.261539 410.060939 
L 283.931582 409.949906 
L 284.064874 407.84214 
L 284.734917 407.731303 
L 284.868286 405.619893 
L 285.53833 405.509253 
L 285.671699 403.40162 
L 286.32747 403.507438 
L 286.574866 418.857591 
L 287.145078 418.753247 
L 287.278135 416.653244 
L 287.948101 416.549077 
L 288.081236 414.445216 
L 288.751202 414.341227 
L 288.884415 412.233564 
L 289.554381 412.129755 
L 289.687672 410.018346 
L 290.357716 409.907317 
L 290.491007 407.799622 
L 291.161051 407.688789 
L 291.29442 405.577451 
L 291.964464 405.466815 
L 292.097833 403.359255 
L 292.767877 403.248818 
L 292.901324 401.137704 
L 293.571368 401.027468 
L 293.704893 398.912861 
L 294.126839 399.018924 
L 294.373767 416.612211 
L 294.384608 415.578386 
L 294.507994 414.404253 
L 295.17796 414.300268 
L 295.311173 412.192672 
L 295.981139 412.088867 
L 296.11443 409.977526 
L 296.784474 409.866501 
L 296.917765 407.758874 
L 297.587809 407.648045 
L 297.721178 405.536775 
L 298.391222 405.426143 
L 298.524591 403.318652 
L 299.194635 403.208219 
L 299.328082 401.097176 
L 299.998126 400.986943 
L 300.131651 398.872407 
L 300.801695 398.762376 
L 300.935298 396.644407 
L 301.605342 396.534579 
L 301.739023 394.413237 
L 301.926208 394.519546 
L 302.193181 412.153484 
L 302.408989 412.049682 
L 302.54228 409.938407 
L 303.212324 409.827385 
L 303.345615 407.719824 
L 304.015659 407.608998 
L 304.149028 405.497795 
L 304.819072 405.387166 
L 304.952441 403.279741 
L 305.622485 403.169311 
L 305.755932 401.058335 
L 306.425976 400.948106 
L 306.559501 398.833638 
L 307.229545 398.72361 
L 307.363148 396.605709 
L 308.033192 396.495886 
L 308.166873 394.374612 
L 308.836917 394.264994 
L 308.970676 392.140409 
L 309.64072 392.030998 
L 309.709822 389.903163 
L 309.747181 392.457576 
L 309.992705 407.684496 
L 310.444601 407.573673 
L 310.57797 405.46253 
L 311.248014 405.351904 
L 311.381383 403.24454 
L 312.051427 403.134113 
L 312.184874 401.023198 
L 312.854918 400.912972 
L 312.988443 398.798565 
L 313.658487 398.68854 
L 313.79209 396.570701 
L 314.462134 396.460881 
L 314.595815 394.33967 
L 315.265859 394.230055 
L 315.399618 392.105532 
L 316.069662 391.996125 
L 316.203499 389.868353 
L 316.873543 389.759154 
L 317.007458 387.628194 
L 317.524946 387.734875 
L 317.680777 404.922854 
L 317.772342 403.2126 
L 318.480914 403.102176 
L 318.614362 400.991316 
L 319.284405 400.881092 
L 319.417931 398.766741 
L 320.087974 398.65672 
L 320.221578 396.538937 
L 320.891621 396.429119 
L 321.025303 394.307964 
L 321.695346 394.198352 
L 321.829106 392.073887 
L 322.499149 391.964482 
L 322.632986 389.836768 
L 323.30303 389.727572 
L 323.436945 387.59667 
L 324.106989 387.487685 
L 324.240904 385.36091 
L 324.910948 385.252136 
L 325.044941 383.122271 
L 325.324315 383.2292 
L 325.591287 400.965557 
L 325.714985 400.855336 
L 325.84851 398.741029 
L 326.518554 398.63101 
L 326.652157 396.513272 
L 327.322201 396.403457 
L 327.455882 394.282348 
L 328.125926 394.172738 
L 328.259685 392.048319 
L 328.929729 391.938917 
L 329.063566 389.811249 
L 329.73361 389.702055 
L 329.867525 387.5712 
L 330.537569 387.462217 
L 330.671562 385.328238 
L 331.341606 385.219467 
L 331.475599 383.089664 
L 332.145643 382.981107 
L 332.279714 380.848277 
L 332.949758 380.739936 
L 333.083907 378.604145 
L 333.123684 378.711323 
L 333.390656 396.488828 
L 333.753951 396.379015 
L 333.887632 394.25795 
L 334.557675 394.148342 
L 334.691435 392.023967 
L 335.361478 391.914567 
L 335.495316 389.786943 
L 336.165359 389.677752 
L 336.299275 387.546941 
L 336.969318 387.437961 
L 337.103311 385.304026 
L 337.773355 385.195258 
L 337.907348 383.065499 
L 338.577392 382.956945 
L 338.711463 380.824161 
L 339.381507 380.715822 
L 339.515656 378.580077 
L 340.1857 378.471955 
L 340.319927 376.333313 
L 340.923052 376.440617 
L 341.170526 392.010603 
L 341.794008 391.901204 
L 341.927845 389.773604 
L 342.597889 389.664414 
L 342.731804 387.533628 
L 343.401848 387.424649 
L 343.535841 385.290739 
L 344.205885 385.181972 
L 344.339878 383.052239 
L 345.009922 382.943686 
L 345.143993 380.810927 
L 345.814037 380.702589 
L 345.948186 378.566869 
L 346.618229 378.458749 
L 346.752457 376.320132 
L 347.4225 376.212231 
L 347.556806 374.070782 
L 348.226849 373.963102 
L 348.361232 371.818888 
L 348.722421 371.926441 
L 348.989394 389.765921 
L 349.031276 389.656732 
L 349.165191 387.52596 
L 349.835235 387.416981 
L 349.969228 385.283086 
L 350.639272 385.17432 
L 350.773265 383.0446 
L 351.443309 382.936048 
L 351.57738 380.803304 
L 352.247424 380.694967 
L 352.381573 378.559261 
L 353.051617 378.451142 
L 353.185844 376.312539 
L 353.855888 376.204639 
L 353.990193 374.063205 
L 354.660237 373.955525 
L 354.79462 371.811326 
L 355.464664 371.703869 
L 355.599125 369.556971 
L 356.269169 369.449738 
L 356.403708 367.300207 
L 356.52179 367.408012 
L 356.788762 385.288883 
L 357.073751 385.180117 
L 357.207745 383.050387 
L 357.877788 382.941834 
L 358.011859 380.809079 
L 358.681903 380.700741 
L 358.816052 378.565025 
L 359.486096 378.456904 
L 359.620323 376.318291 
L 360.290367 376.21039 
L 360.424672 374.068945 
L 361.094716 373.961265 
L 361.229099 371.817054 
L 361.899143 371.709597 
L 362.033604 369.562687 
L 362.703648 369.455454 
L 362.838187 367.305912 
L 363.508231 367.198905 
L 363.642848 365.046798 
L 364.313126 364.940832 
L 364.321003 364.289984 
L 364.375365 369.113476 
L 364.588521 380.813716 
L 365.11763 380.705378 
L 365.25178 378.569653 
L 365.921823 378.461532 
L 366.056051 376.32291 
L 366.726094 376.215008 
L 366.860399 374.073555 
L 367.530443 373.965874 
L 367.664826 371.821654 
L 368.33487 371.714196 
L 368.469331 369.567277 
L 369.139375 369.460044 
L 369.273914 367.310492 
L 369.943958 367.203485 
L 370.078575 365.051369 
L 370.748619 364.94459 
L 370.883314 362.789977 
L 371.553358 362.683428 
L 371.688131 360.526388 
L 372.120528 360.634569 
L 372.357005 378.577669 
L 372.373929 377.014537 
L 372.492402 376.33091 
L 373.162445 376.223008 
L 373.296751 374.081538 
L 373.966794 373.973857 
L 374.101177 371.829622 
L 374.771221 371.722163 
L 374.905682 369.575228 
L 375.575726 369.467994 
L 375.710265 367.318426 
L 376.380309 367.211418 
L 376.514926 365.059286 
L 377.18497 364.952506 
L 377.319665 362.797877 
L 377.989709 362.691327 
L 378.124482 360.534271 
L 378.794526 360.427953 
L 378.929377 358.268538 
L 379.599421 358.162455 
L 379.73435 356.000751 
L 379.919897 356.109185 
L 380.186869 374.093981 
L 380.404393 373.986298 
L 380.538777 371.842038 
L 381.20882 371.734578 
L 381.343281 369.587618 
L 382.013325 369.480383 
L 382.147864 367.330791 
L 382.817908 367.223781 
L 382.952525 365.071624 
L 383.622569 364.964843 
L 383.757264 362.810189 
L 384.427308 362.703638 
L 384.562081 360.546555 
L 385.232125 360.440237 
L 385.366976 358.280796 
L 386.03702 358.174711 
L 386.171949 356.012982 
L 386.841992 355.907133 
L 386.977 353.743186 
L 387.647043 353.637575 
L 387.703511 351.471483 
L 387.746251 354.698393 
L 387.986472 369.606791 
L 388.452172 369.499553 
L 388.586711 367.349922 
L 389.256755 367.242911 
L 389.391372 365.090715 
L 390.061416 364.983932 
L 390.196111 362.829238 
L 390.866155 362.722685 
L 391.000928 360.565564 
L 391.670972 360.459243 
L 391.805823 358.299762 
L 392.475867 358.193675 
L 392.610796 356.031906 
L 393.280839 355.926055 
L 393.415846 353.762068 
L 394.08589 353.656455 
L 394.220975 351.490321 
L 394.891019 351.384948 
L 395.026182 349.21674 
L 395.518634 349.325554 
L 395.695056 367.373032 
L 395.766108 365.113775 
L 396.500887 365.00699 
L 396.635582 362.852249 
L 397.305626 362.745694 
L 397.440399 360.588524 
L 398.110443 360.482201 
L 398.245294 358.322673 
L 398.915337 358.216583 
L 399.050267 356.054766 
L 399.72031 355.948912 
L 399.855317 353.784876 
L 400.525361 353.67926 
L 400.660446 351.513078 
L 401.33049 351.407702 
L 401.465653 349.239444 
L 402.135697 349.13431 
L 402.271016 346.957058 
L 402.94106 346.852168 
L 403.076457 344.673019 
L 403.318003 344.782088 
L 403.584976 362.87167 
L 403.7465 362.765113 
L 403.881274 360.607903 
L 404.551317 360.501578 
L 404.686168 358.342009 
L 405.356212 358.235918 
L 405.491141 356.074059 
L 406.161185 355.968203 
L 406.296192 353.804126 
L 406.966236 353.698508 
L 407.101321 351.532284 
L 407.771365 351.426906 
L 407.906528 349.258607 
L 408.576572 349.15347 
L 408.711813 346.983169 
L 409.381856 346.878276 
L 409.517254 344.699069 
L 410.187297 344.594422 
L 410.322772 342.413392 
L 410.992816 342.308995 
L 411.101617 340.126217 
L 411.121584 340.725386 
L 411.384344 358.367355 
L 411.798413 358.261262 
L 411.933342 356.099349 
L 412.603386 355.993491 
L 412.738393 353.82936 
L 413.408437 353.723739 
L 413.543522 351.55746 
L 414.213565 351.45208 
L 414.348729 349.283725 
L 415.018772 349.178586 
L 415.154013 347.008229 
L 415.824057 346.903334 
L 415.959454 344.72407 
L 416.629498 344.619421 
L 416.764973 342.438335 
L 417.435017 342.333934 
L 417.57057 340.1511 
L 418.240692 340.040007 
L 418.376245 337.862443 
L 418.916741 337.971895 
L 419.164215 353.853872 
L 419.851417 353.748249 
L 419.986502 351.581917 
L 420.656546 351.476534 
L 420.791709 349.308126 
L 421.461753 349.202984 
L 421.596994 347.032573 
L 422.267038 346.927675 
L 422.402435 344.748357 
L 423.072479 344.643705 
L 423.207954 342.462564 
L 423.877997 342.358161 
L 424.01355 340.175271 
L 424.683672 340.064175 
L 424.819225 337.886556 
L 425.489347 337.775729 
L 425.624978 335.596498 
L 426.2951 335.485942 
L 426.430809 333.305175 
L 426.71611 333.414884 
L 426.983082 351.610236 
L 427.100853 351.50485 
L 427.236016 349.33638 
L 427.906059 349.231235 
L 428.0413 347.060762 
L 428.711344 346.955861 
L 428.846741 344.776479 
L 429.516785 344.671825 
L 429.65226 342.49062 
L 430.322304 342.386213 
L 430.457857 340.20326 
L 431.127979 340.09216 
L 431.263532 337.914477 
L 431.933654 337.803647 
L 432.069285 335.62435 
L 432.739406 335.513791 
L 432.875115 333.332958 
L 433.545237 333.222673 
L 433.681024 331.040382 
L 434.351146 330.930372 
L 434.487089 328.739842 
L 434.515479 328.84981 
L 434.782451 347.087812 
L 435.157133 346.982908 
L 435.29253 344.803466 
L 435.962573 344.698808 
L 436.098049 342.517542 
L 436.768092 342.413133 
L 436.903645 340.230117 
L 437.573767 340.119015 
L 437.70932 337.94127 
L 438.379442 337.830436 
L 438.515073 335.651077 
L 439.185195 335.540515 
L 439.320904 333.359619 
L 439.991025 333.249331 
L 440.126812 331.066976 
L 440.796934 330.956964 
L 440.932877 328.766369 
L 441.602999 328.656636 
L 441.73902 326.464774 
L 442.314847 326.574871 
L 442.562321 342.54846 
L 443.214817 342.444047 
L 443.35037 340.260961 
L 444.020491 340.149855 
L 444.156044 337.972038 
L 444.826166 337.861201 
L 444.961797 335.68177 
L 445.631919 335.571205 
L 445.767628 333.390237 
L 446.43775 333.279945 
L 446.573537 331.097517 
L 447.243659 330.987501 
L 447.379602 328.796833 
L 448.049723 328.687095 
L 448.185744 326.495159 
L 448.855866 326.385703 
L 448.991965 324.19258 
L 449.662087 324.083407 
L 449.798264 321.889176 
L 450.114216 321.999533 
L 450.381189 340.301721 
L 450.468386 340.190611 
L 450.603939 338.0127 
L 451.27406 337.901858 
L 451.409691 335.722333 
L 452.079813 335.611763 
L 452.215522 333.430699 
L 452.885644 333.320402 
L 453.021431 331.137878 
L 453.691553 331.027857 
L 453.827496 328.837091 
L 454.497618 328.727349 
L 454.633639 326.535315 
L 455.30376 326.425854 
L 455.439859 324.232631 
L 456.109981 324.123453 
L 456.246158 321.929123 
L 456.91628 321.820231 
L 457.052535 319.624875 
L 457.722657 319.516271 
L 457.859068 317.313201 
L 457.913585 317.423818 
L 458.180558 335.769006 
L 458.529189 335.65843 
L 458.664898 333.477256 
L 459.33502 333.366954 
L 459.470807 331.184319 
L 460.140929 331.074293 
L 460.276872 328.883415 
L 460.946994 328.773667 
L 461.083015 326.58152 
L 461.753136 326.472053 
L 461.889235 324.278717 
L 462.559357 324.169533 
L 462.695534 321.975088 
L 463.365656 321.86619 
L 463.501911 319.670718 
L 464.172033 319.562108 
L 464.308444 317.358922 
L 464.978565 317.250603 
L 465.115054 315.04659 
L 465.712954 315.157337 
L 465.960428 331.228274 
L 466.591475 331.118242 
L 466.727418 328.927258 
L 467.39754 328.817505 
L 467.533561 326.625251 
L 468.203682 326.515779 
L 468.339781 324.322335 
L 469.009903 324.213146 
L 469.14608 322.018592 
L 469.816202 321.909689 
L 469.952457 319.714107 
L 470.622579 319.605492 
L 470.75899 317.402194 
L 471.429111 317.29387 
L 471.5656 315.089746 
L 472.235722 314.981715 
L 472.372289 312.776848 
L 473.042411 312.669113 
L 473.179134 310.456873 
L 473.512323 310.567882 
L 473.779295 328.977685 
L 473.849256 328.867926 
L 473.985277 326.675549 
L 474.655398 326.566071 
L 474.791497 324.372502 
L 475.461619 324.263307 
L 475.597796 322.068629 
L 476.267918 321.959719 
L 476.404173 319.764012 
L 477.074295 319.65539 
L 477.210706 317.451965 
L 477.880827 317.343635 
L 478.017316 315.139382 
L 478.687438 315.031345 
L 478.824005 312.826348 
L 479.494127 312.718607 
L 479.63085 310.506237 
L 480.300971 310.398794 
L 480.437772 308.185887 
L 481.107894 308.078746 
L 481.244773 305.86539 
L 481.311614 305.967428 
L 481.578664 324.429863 
L 481.914895 324.320661 
L 482.051072 322.125839 
L 482.721194 322.016922 
L 482.857449 319.821071 
L 483.52757 319.712442 
L 483.663981 317.508872 
L 484.334103 317.400534 
L 484.470592 315.196134 
L 485.140714 315.08809 
L 485.277281 312.882946 
L 485.947403 312.775196 
L 486.084125 310.562677 
L 486.754247 310.455226 
L 486.891048 308.242169 
L 487.56117 308.13502 
L 487.698049 305.921513 
L 488.368171 305.814667 
L 488.505206 303.594138 
L 489.110983 303.696295 
L 489.358535 319.871601 
L 489.982172 319.762966 
L 490.118583 317.559266 
L 490.788705 317.450922 
L 490.925194 315.246393 
L 491.595315 315.138341 
L 491.731882 312.933066 
L 492.402004 312.825311 
L 492.538727 310.612659 
L 493.208849 310.505202 
L 493.34565 308.292011 
L 494.015772 308.184856 
L 494.152651 305.971213 
L 494.822772 305.864361 
L 494.959807 303.643696 
L 495.629929 303.53715 
L 495.767042 301.316247 
L 496.437164 301.210011 
L 496.574355 298.988959 
L 496.910351 299.091358 
L 497.177402 317.619011 
L 497.244476 317.510659 
L 497.380965 315.305976 
L 498.051087 315.197917 
L 498.187654 312.992487 
L 498.857776 312.884724 
L 498.994421 310.678631 
L 499.664543 310.571166 
L 499.801343 308.357799 
L 500.471465 308.250635 
L 500.608344 306.036815 
L 501.278466 305.929954 
L 501.415501 303.709109 
L 502.085623 303.602555 
L 502.222735 301.38147 
L 502.892857 301.275225 
L 503.030048 299.05399 
L 503.70017 298.948058 
L 503.837517 296.720162 
L 504.507639 296.614544 
L 504.645063 294.386718 
L 504.70972 294.489361 
L 504.976771 313.06079 
L 505.315185 312.953018 
L 505.45183 310.746746 
L 506.121952 310.639272 
L 506.258753 308.425723 
L 506.928875 308.31855 
L 507.065754 306.104546 
L 507.735875 305.997677 
L 507.872832 303.783306 
L 508.542954 303.676743 
L 508.680067 301.455453 
L 509.350189 301.349198 
L 509.48738 299.127756 
L 510.157501 299.021813 
L 510.294848 296.793708 
L 510.96497 296.68808 
L 511.102395 294.460043 
L 511.772517 294.354733 
L 511.910098 292.120294 
L 512.509089 292.223057 
L 512.756641 308.496688 
L 513.387532 308.389506 
L 513.524411 306.175311 
L 514.194533 306.068432 
L 514.33149 303.853869 
L 515.001611 303.747296 
L 515.138724 301.52581 
L 515.808846 301.419546 
L 515.946037 299.197907 
L 516.616159 299.091955 
L 516.753506 296.863651 
L 517.423627 296.758013 
L 517.561052 294.529776 
L 518.231174 294.424456 
L 518.368677 292.196377 
L 519.038799 292.091378 
L 519.176458 289.857008 
L 519.846579 289.752332 
L 519.984316 287.518348 
L 520.308458 287.621355 
L 520.57543 306.258308 
L 520.654438 306.151419 
L 520.791395 303.936629 
L 521.461517 303.830045 
L 521.59863 301.60833 
L 522.268751 301.502055 
L 522.405942 299.280186 
L 523.076064 299.174222 
L 523.213411 296.945684 
L 523.883533 296.840036 
L 524.020958 294.611563 
L 524.691079 294.506232 
L 524.828582 292.277916 
L 525.498704 292.172905 
L 525.636363 289.938296 
L 526.306485 289.833608 
L 526.444221 287.599383 
L 527.114421 287.488499 
L 527.252236 285.254772 
L 527.922436 285.144238 
L 528.060329 282.911106 
L 528.107827 283.014357 
L 528.374799 301.695392 
L 528.73045 301.589106 
L 528.867641 299.366993 
L 529.537763 299.261018 
L 529.67511 297.032234 
L 530.345232 296.926574 
L 530.482657 294.697852 
L 531.152778 294.59251 
L 531.290281 292.363944 
L 531.960403 292.258921 
L 532.098062 290.024059 
L 532.768184 289.919359 
L 532.905921 287.684879 
L 533.57612 287.573982 
L 533.713935 285.339998 
L 534.384135 285.229451 
L 534.522028 282.99606 
L 535.192228 282.885865 
L 535.330276 280.646702 
L 535.907196 280.750074 
L 536.154748 297.123566 
L 536.808101 297.017893 
L 536.945526 294.78891 
L 537.615647 294.683555 
L 537.75315 292.454725 
L 538.423272 292.34969 
L 538.560931 290.114561 
L 539.231053 290.009849 
L 539.36879 287.7751 
L 540.038989 287.66419 
L 540.176804 285.429935 
L 540.847004 285.319374 
L 540.984897 283.08571 
L 541.655097 282.975501 
L 541.793145 280.736062 
L 542.463345 280.62621 
L 542.601472 278.387596 
L 543.271672 278.278103 
L 543.409954 276.033995 
L 543.706564 276.137613 
L 543.973537 294.884641 
L 544.080076 294.779273 
L 544.217579 292.550165 
L 544.887701 292.445117 
L 545.02536 290.209708 
L 545.695482 290.104982 
L 545.833218 287.869951 
L 546.503418 287.759026 
L 546.641233 285.524487 
L 547.311433 285.413912 
L 547.449326 283.17996 
L 548.119525 283.069738 
L 548.257574 280.830008 
L 548.927774 280.720142 
L 549.065901 278.481235 
L 549.736101 278.371728 
L 549.874383 276.127324 
L 550.544583 276.018179 
L 550.683022 273.76844 
L 551.353222 273.659662 
L 551.490257 271.411131 
L 551.491738 271.412024 
L 551.506635 271.599588 
L 551.772906 290.306515 
L 552.16186 290.201776 
L 552.299597 287.966457 
L 552.969797 287.855518 
L 553.107612 285.620689 
L 553.777812 285.5101 
L 553.915704 283.275856 
L 554.585904 283.165619 
L 554.723953 280.925594 
L 555.394153 280.815713 
L 555.53228 278.57651 
L 556.202479 278.466988 
L 556.340762 276.222283 
L 557.010962 276.113123 
L 557.149401 273.86308 
L 557.8196 273.754287 
L 557.958117 271.50545 
L 558.628317 271.397026 
L 558.76699 269.14314 
L 559.305302 269.247127 
L 559.461212 285.855715 
L 559.552854 285.714308 
L 560.245282 285.603705 
L 560.383175 283.369177 
L 561.053375 283.258926 
L 561.191424 281.018614 
L 561.861623 280.908719 
L 561.99975 278.669226 
L 562.66995 278.559689 
L 562.808233 276.314692 
L 563.478432 276.205518 
L 563.616793 273.96158 
L 564.286993 273.852772 
L 564.42551 271.603616 
L 565.09571 271.495176 
L 565.234382 269.240968 
L 565.904582 269.132902 
L 566.043333 266.880145 
L 566.713533 266.772455 
L 566.852439 264.514942 
L 567.104671 264.619177 
L 567.371643 283.477262 
L 567.522639 283.366994 
L 567.660688 281.126349 
L 568.330888 281.016438 
L 568.469015 278.77661 
L 569.139214 278.667057 
L 569.277497 276.421721 
L 569.947697 276.31253 
L 570.086058 274.068251 
L 570.756258 273.959426 
L 570.894774 271.709925 
L 571.564974 271.601469 
L 571.703647 269.346912 
L 572.373847 269.238829 
L 572.512597 266.985721 
L 573.182797 266.878013 
L 573.321704 264.620145 
L 573.991904 264.512817 
L 574.130966 262.25036 
L 574.801166 262.143416 
L 574.888363 259.876544 
L 574.918001 261.672801 
L 575.171168 278.884018 
L 575.610585 278.774448 
L 575.748868 276.528773 
L 576.419067 276.419566 
L 576.557428 274.174946 
L 577.227628 274.066104 
L 577.366145 271.816258 
L 578.036344 271.707785 
L 578.175017 269.452879 
L 578.845217 269.344779 
L 578.983968 267.09132 
L 579.654168 266.983596 
L 579.793074 264.725372 
L 580.463274 264.618027 
L 580.602337 262.355211 
L 581.272537 262.24825 
L 581.411755 259.981015 
L 582.081955 259.874442 
L 582.221252 257.609211 
L 582.703409 257.713817 
L 582.890126 276.638795 
L 582.951039 274.2846 
L 583.700012 274.175741 
L 583.838529 271.92554 
L 584.508729 271.81705 
L 584.647401 269.561786 
L 585.317601 269.453669 
L 585.456352 267.199848 
L 586.126552 267.092107 
L 586.265459 264.833518 
L 586.935658 264.726156 
L 587.074721 262.462971 
L 587.744921 262.355993 
L 587.884062 260.094656 
L 588.554261 259.988064 
L 588.693558 257.722435 
L 589.363758 257.616233 
L 589.50321 255.34649 
L 590.17341 255.240683 
L 590.313019 252.967005 
L 590.502778 253.071862 
L 590.76975 272.041939 
L 590.983219 271.933431 
L 591.121814 269.684147 
L 591.792013 269.576011 
L 591.930764 267.321784 
L 592.600964 267.214023 
L 592.739871 264.955025 
L 593.41007 264.847643 
L 593.549133 262.584044 
L 594.219333 262.477046 
L 594.358474 260.215291 
L 595.028673 260.108679 
L 595.16797 257.842629 
L 595.83817 257.736407 
L 595.977623 255.466238 
L 596.647822 255.360411 
L 596.787431 253.086302 
L 597.457631 252.980873 
L 597.597395 250.703006 
L 598.267595 250.59798 
L 598.296453 248.355782 
L 598.343093 253.40893 
L 598.569509 267.436989 
L 599.077716 267.329209 
L 599.216622 265.069824 
L 599.886822 264.962424 
L 600.025885 262.698433 
L 600.696085 262.591416 
L 600.835225 260.329267 
L 601.505425 260.222637 
L 601.644722 257.956188 
L 602.314922 257.849948 
L 602.454374 255.579376 
L 603.124574 255.47353 
L 603.264183 253.199014 
L 603.934383 253.093566 
L 604.074147 250.815288 
L 604.744347 250.710242 
L 604.884268 248.428385 
L 605.554546 248.317591 
L 605.694466 246.044627 
L 606.101515 246.149858 
L 606.36334 265.187386 
L 606.36646 264.934664 
L 606.503651 262.821873 
L 607.173851 262.714836 
L 607.312991 260.452262 
L 607.983191 260.345612 
L 608.122488 258.078733 
L 608.792688 257.972473 
L 608.93214 255.701466 
L 609.60234 255.5956 
L 609.741949 253.320645 
L 610.412148 253.215177 
L 610.551913 250.936455 
L 611.222113 250.831389 
L 611.361956 248.55524 
L 612.032233 248.444424 
L 612.172154 246.170986 
L 612.842432 246.060603 
L 612.982508 243.783882 
L 613.652786 243.673937 
L 613.793019 241.394123 
L 613.900884 241.499607 
L 614.167857 260.582583 
L 614.463219 260.475911 
L 614.602515 258.208577 
L 615.272715 258.102295 
L 615.412168 255.830829 
L 616.082368 255.724941 
L 616.221976 253.449521 
L 616.892176 253.344031 
L 617.031863 251.071022 
L 617.702063 250.965933 
L 617.841905 248.689288 
L 618.512183 248.578448 
L 618.652104 246.304509 
L 619.322381 246.194102 
L 619.462458 243.916876 
L 620.132736 243.806907 
L 620.272969 241.526582 
L 620.943246 241.417055 
L 621.083635 239.133822 
L 621.700253 239.239429 
L 621.947883 255.97168 
L 622.564111 255.865769 
L 622.703642 253.596051 
L 623.373842 253.490537 
L 623.513528 251.216995 
L 624.183728 251.111881 
L 624.323571 248.834699 
L 624.993848 248.723832 
L 625.133769 246.449351 
L 625.804047 246.338918 
L 625.944124 244.061144 
L 626.614401 243.951148 
L 626.754634 241.67027 
L 627.424912 241.560716 
L 627.5653 239.276924 
L 628.235578 239.167817 
L 628.376045 236.881304 
L 629.046401 236.772649 
L 629.187023 234.48361 
L 629.499622 234.589471 
L 629.766594 253.74018 
L 629.857301 253.634642 
L 629.996988 251.360576 
L 630.667187 251.255439 
L 630.80703 248.977727 
L 631.477308 248.866835 
L 631.617228 246.591821 
L 632.287506 246.481362 
L 632.427583 244.20305 
L 633.097861 244.093028 
L 633.238093 241.811605 
L 633.908371 241.702025 
L 634.04876 239.417683 
L 634.719037 239.30855 
L 634.859504 237.021482 
L 635.52986 236.9128 
L 635.670482 234.6232 
L 636.340838 234.514974 
L 636.481617 232.223041 
L 637.151973 232.115274 
L 637.283314 229.821208 
L 637.292517 229.85492 
L 637.305854 230.772196 
L 637.566041 249.123866 
L 637.963263 249.012947 
L 638.103184 246.737389 
L 638.773461 246.626903 
L 638.913538 244.348041 
L 639.583816 244.237992 
L 639.724048 241.956014 
L 640.394326 241.846408 
L 640.534715 239.561504 
L 641.204993 239.452344 
L 641.345459 237.164709 
L 642.015815 237.055999 
L 642.156438 234.765827 
L 642.826793 234.657573 
L 642.967572 232.365062 
L 643.637928 232.257268 
L 643.778862 229.962616 
L 644.449218 229.855287 
L 644.590387 227.55276 
L 645.09836 227.658999 
L 645.259339 246.83483 
L 645.34599 244.488003 
L 646.071097 244.377929 
L 646.211329 242.095415 
L 646.881607 241.985782 
L 647.021996 239.700337 
L 647.692274 239.591151 
L 647.83274 237.302969 
L 648.503096 237.194233 
L 648.643719 234.903508 
L 649.314074 234.795228 
L 649.454853 232.502158 
L 650.125209 232.394337 
L 650.266143 230.099121 
L 650.936499 229.991766 
L 651.07759 227.694606 
L 651.747945 227.587719 
L 651.88927 225.282908 
L 652.559626 225.176496 
L 652.701106 222.870203 
L 652.897728 222.976699 
L 653.164701 242.241777 
L 653.371462 242.132117 
L 653.511851 239.846104 
L 654.182128 239.73689 
L 654.322595 237.448134 
L 654.992951 237.339371 
L 655.133573 235.048066 
L 655.803929 234.939758 
L 655.944708 232.646101 
L 656.615064 232.538254 
L 656.755998 230.242446 
L 657.426354 230.135062 
L 657.567445 227.837304 
L 658.2378 227.73039 
L 658.379047 225.430886 
L 659.049403 225.324445 
L 659.190883 223.017515 
L 659.861239 222.911553 
L 660.002875 220.603345 
L 660.673231 220.497868 
L 660.697019 218.810827 
L 660.741086 223.735551 
L 660.96446 237.605955 
L 661.485379 237.497162 
L 661.626002 235.205226 
L 662.296358 235.096889 
L 662.437136 232.802595 
L 663.107492 232.694717 
L 663.248427 230.398266 
L 663.918783 230.290852 
L 664.059873 227.992445 
L 664.730229 227.8855 
L 664.871475 225.585339 
L 665.541831 225.478868 
L 665.683312 223.171273 
L 666.353668 223.065281 
L 666.495304 220.756401 
L 667.16566 220.650893 
L 667.307452 218.340939 
L 667.977886 218.230086 
L 668.119835 215.9193 
L 668.496466 216.026177 
L 668.763439 235.360032 
L 668.79019 235.251665 
L 668.930969 232.956745 
L 669.601325 232.848837 
L 669.742259 230.551752 
L 670.412615 230.444309 
L 670.553706 228.145261 
L 671.224061 228.038286 
L 671.365308 225.73748 
L 672.035664 225.630978 
L 672.177066 223.328619 
L 672.847422 223.222596 
L 672.989059 220.913029 
L 673.659414 220.807489 
L 673.801207 218.496842 
L 674.471641 218.385956 
L 674.613589 216.074468 
L 675.284023 215.964104 
L 675.426127 213.651993 
L 676.096561 213.542156 
L 676.238822 211.229641 
L 676.295835 211.336778 
L 676.562807 230.717173 
L 676.909177 230.609697 
L 677.050268 228.309961 
L 677.720624 228.202954 
L 677.86187 225.901451 
L 678.532226 225.794917 
L 678.673629 223.491855 
L 679.343984 223.385799 
L 679.485621 221.075519 
L 680.155977 220.969947 
L 680.297769 218.65858 
L 680.968203 218.547659 
L 681.110073 216.241256 
L 681.780507 216.130856 
L 681.922612 213.817985 
L 682.593045 213.708112 
L 682.735306 211.394828 
L 683.40574 211.285488 
L 683.548234 208.966287 
L 684.095204 209.073548 
L 684.342834 226.068571 
L 685.030348 225.962004 
L 685.171751 223.658225 
L 685.842106 223.552136 
L 685.983665 221.246999 
L 686.654021 221.141392 
L 686.795813 218.829267 
L 687.466247 218.718309 
L 687.608118 216.411142 
L 688.278551 216.300705 
L 688.420656 213.987059 
L 689.09109 213.877149 
L 689.23335 211.563084 
L 689.903784 211.453707 
L 690.046278 209.133714 
L 690.716712 209.024875 
L 690.859362 206.704964 
L 691.529796 206.596669 
L 691.672681 204.271395 
L 691.894573 204.378916 
L 692.161545 223.828571 
L 692.343036 223.722448 
L 692.484595 221.41657 
L 693.154951 221.31093 
L 693.296743 218.998054 
L 693.967177 218.887061 
L 694.109047 216.579138 
L 694.779481 216.468665 
L 694.921508 214.160042 
L 695.591941 214.050094 
L 695.734202 211.735229 
L 696.404636 211.625814 
L 696.547052 209.310743 
L 697.217486 209.201865 
L 697.360136 206.881109 
L 698.03057 206.772774 
L 698.173455 204.446644 
L 698.843888 204.33886 
L 698.986929 202.013317 
L 699.657362 201.906088 
L 699.689652 199.628047 
L 699.732548 204.505602 
L 699.961226 219.180026 
L 700.471071 219.068993 
L 700.612941 216.760257 
L 701.283375 216.649744 
L 701.425401 214.340299 
L 702.095835 214.230312 
L 702.238096 211.914615 
L 702.908529 211.80516 
L 703.050946 209.489249 
L 703.72138 209.38033 
L 703.86403 207.058723 
L 704.534464 206.950349 
L 704.67727 204.629033 
L 705.347704 204.521207 
L 705.490744 202.194766 
L 706.161178 202.087496 
L 706.304453 199.756247 
L 706.974886 199.649539 
L 707.118395 197.313807 
L 707.49331 197.421714 
L 707.760283 216.940869 
L 707.788828 216.830318 
L 707.930855 214.520054 
L 708.601289 214.410027 
L 708.743549 212.093501 
L 709.413983 211.984007 
L 709.556399 209.667257 
L 710.226833 209.5583 
L 710.369484 207.235844 
L 711.039917 207.12743 
L 711.182724 204.805258 
L 711.853158 204.697392 
L 711.996198 202.370084 
L 712.666632 202.262773 
L 712.809906 199.930647 
L 713.48034 199.823898 
L 713.62377 197.492867 
L 714.294204 197.386685 
L 714.437868 195.051428 
L 715.108302 194.94582 
L 715.2522 192.606667 
L 715.292679 192.714837 
L 715.559652 212.281151 
L 715.922634 212.171615 
L 716.065051 209.853988 
L 716.735484 209.744989 
L 716.878057 207.427353 
L 717.548491 207.318896 
L 717.691297 204.995798 
L 718.361731 204.887889 
L 718.504771 202.559644 
L 719.175205 202.45229 
L 719.318401 200.124837 
L 719.988835 200.018043 
L 720.132266 197.686025 
L 720.802699 197.579799 
L 720.946364 195.243543 
L 721.616797 195.13789 
L 721.760696 192.797726 
L 722.431208 192.687125 
L 722.575262 190.348918 
L 723.092048 190.457214 
L 723.247957 209.674445 
L 723.339678 207.618925 
L 724.058702 207.510425 
L 724.201508 205.186402 
L 724.871942 205.07845 
L 725.014982 202.749268 
L 725.685416 202.641871 
L 725.828613 200.313472 
L 726.499046 200.206634 
L 726.642477 197.873659 
L 727.312911 197.767389 
L 727.456575 195.430164 
L 728.127009 195.324467 
L 728.270907 192.983323 
L 728.941419 192.872674 
L 729.085473 190.533478 
L 729.755985 190.423448 
L 729.900273 188.080975 
L 730.570785 187.971571 
L 730.715307 185.626166 
L 730.891417 185.734725 
L 731.158389 205.371185 
L 731.385741 205.263191 
L 731.528703 202.938757 
L 732.199137 202.831316 
L 732.342334 200.501973 
L 733.012767 200.395092 
L 733.156198 198.061161 
L 733.826631 197.954847 
L 733.970296 195.616654 
L 734.64073 195.510913 
L 734.784628 193.16879 
L 735.45514 193.058095 
L 735.599116 190.723414 
L 736.269628 190.613336 
L 736.413838 188.275306 
L 737.08435 188.165851 
L 737.228872 185.819374 
L 737.899384 185.710552 
L 738.04414 183.361477 
L 738.690786 183.470163 
L 738.938494 200.696178 
L 739.52953 200.589253 
L 739.67296 198.254338 
L 740.343394 198.147978 
L 740.48698 195.814358 
L 741.157414 195.708571 
L 741.301235 193.370947 
L 741.971746 193.260202 
L 742.115723 190.924446 
L 742.786234 190.814317 
L 742.930445 188.4752 
L 743.600956 188.365694 
L 743.745401 186.023558 
L 744.415912 185.914683 
L 744.560591 183.569874 
L 745.231103 183.461637 
L 745.376093 181.109127 
L 746.046605 181.001538 
L 746.191829 178.647126 
L 746.490155 178.756076 
L 746.757127 198.462916 
L 746.862263 198.356508 
L 747.005849 196.021816 
L 747.676283 195.91598 
L 747.820103 193.577271 
L 748.490615 193.466474 
L 748.634591 191.129623 
L 749.305103 191.019442 
L 749.449313 188.679216 
L 750.119825 188.569658 
L 750.264269 186.226399 
L 750.934781 186.117472 
L 751.079459 183.771527 
L 751.749971 183.663238 
L 751.894883 181.314958 
L 752.565395 181.207314 
L 752.710619 178.851706 
L 753.381131 178.744716 
L 753.526589 176.387554 
L 754.197101 176.281226 
L 754.273847 173.922876 
L 754.30754 176.313845 
L 754.556652 193.786716 
L 755.013305 193.675867 
L 755.157281 191.337904 
L 755.827793 191.22767 
L 755.972003 188.886319 
L 756.642515 188.776709 
L 756.786959 186.432312 
L 757.457471 186.323331 
L 757.602149 183.976234 
L 758.272661 183.867892 
L 758.417573 181.518447 
L 759.088085 181.410749 
L 759.233231 179.059311 
L 759.903743 178.952266 
L 760.049201 176.593876 
L 760.719713 176.487492 
L 760.865405 174.1279 
L 761.535995 174.016901 
L 761.681921 171.656509 
L 762.088892 171.765853 
L 762.350873 191.543441 
L 762.354071 191.317386 
L 762.496565 189.09618 
L 763.167077 188.986515 
L 763.311521 186.640966 
L 763.982033 186.531931 
L 764.126711 184.183669 
L 764.797223 184.075272 
L 764.942135 181.724646 
L 765.612647 181.616894 
L 765.757793 179.264262 
L 766.428305 179.157163 
L 766.573685 176.802884 
L 767.244197 176.696444 
L 767.389889 174.335594 
L 768.060479 174.224536 
L 768.206327 171.868127 
L 768.876917 171.757779 
L 769.023077 169.395645 
L 769.693667 169.286017 
L 769.840139 166.918639 
L 769.888261 167.02825 
L 770.155234 186.853932 
L 770.510651 186.744842 
L 770.655251 184.400814 
L 771.325763 184.29236 
L 771.470675 181.9405 
L 772.141187 181.832692 
L 772.286333 179.47881 
L 772.956845 179.371654 
L 773.102225 177.016111 
L 773.772737 176.909614 
L 773.918429 174.547482 
L 774.588941 174.441654 
L 774.734867 172.078661 
L 775.405457 171.968252 
L 775.551617 169.604806 
L 776.222207 169.495117 
L 776.368601 167.131598 
L 777.039191 167.022637 
L 777.185897 164.654277 
L 777.68763 164.764015 
L 777.854848 184.605425 
L 777.935338 182.156548 
L 778.671754 182.048682 
L 778.816901 179.693552 
L 779.487412 179.586338 
L 779.632793 177.229532 
L 780.303304 177.122977 
L 780.448919 174.764859 
L 781.11943 174.658971 
L 781.265357 172.29465 
L 781.935946 172.184178 
L 782.082028 169.824615 
L 782.752618 169.714861 
L 782.899012 167.34995 
L 783.569602 167.240923 
L 783.716308 164.871151 
L 784.386898 164.762862 
L 784.533916 162.388724 
L 785.204506 162.281182 
L 785.351836 159.903181 
L 785.486999 160.013188 
L 785.753971 179.910297 
L 786.022348 179.803025 
L 786.167728 177.444945 
L 786.83824 177.338332 
L 786.983854 174.978925 
L 787.654365 174.872979 
L 787.800214 172.512614 
L 788.470803 172.40208 
L 788.616886 170.041164 
L 789.287475 169.931347 
L 789.433869 167.565064 
L 790.104459 167.455974 
L 790.251087 165.089972 
L 790.921677 164.981618 
L 791.068617 162.611161 
L 791.739207 162.503552 
L 791.886459 160.129142 
L 792.557049 160.022289 
L 792.704613 157.644433 
L 793.286368 157.754569 
L 793.533998 175.20958 
L 794.191952 175.103572 
L 794.337801 172.741803 
L 795.00839 172.631202 
L 795.154473 170.268866 
L 795.825062 170.158982 
L 795.971378 167.796458 
L 796.641968 167.6873 
L 796.788596 165.319807 
L 797.459186 165.211384 
L 797.606126 162.839416 
L 798.276716 162.731738 
L 798.423968 160.355796 
L 799.094558 160.248874 
L 799.242122 157.869466 
L 799.912712 157.763308 
L 800.060588 155.38095 
L 800.731255 155.270549 
L 800.879365 152.890782 
L 801.085737 153.001187 
L 801.352709 172.969947 
L 801.549955 172.85928 
L 801.695959 170.500768 
L 802.366549 170.390817 
L 802.512865 168.02683 
L 803.183455 167.917604 
L 803.330083 165.548629 
L 804.000673 165.440138 
L 804.147613 163.066667 
L 804.818203 162.958921 
L 804.965377 160.586551 
L 805.635966 160.479558 
L 805.783452 158.10363 
L 806.454042 157.9974 
L 806.601918 155.613406 
L 807.272586 155.502929 
L 807.420696 153.121507 
L 808.091364 153.011853 
L 808.239786 150.628475 
L 808.885105 150.73901 
L 809.132813 168.257857 
L 809.729075 168.148563 
L 809.875625 165.783273 
L 810.546215 165.674712 
L 810.693077 163.304837 
L 811.363667 163.197018 
L 811.510841 160.823057 
L 812.181431 160.715992 
L 812.328917 158.338451 
L 812.999506 158.232148 
L 813.147305 155.851542 
L 813.817972 155.740988 
L 813.966004 153.362861 
L 814.636672 153.253127 
L 814.785094 150.867998 
L 815.455762 150.759096 
L 815.604496 148.372525 
L 816.275085 148.264466 
L 816.424131 145.872126 
L 816.684474 145.982932 
L 816.951447 166.023663 
L 817.094721 165.91503 
L 817.241583 163.543584 
L 817.912173 163.435693 
L 818.059347 161.060139 
L 818.729859 160.953001 
L 818.877345 158.573845 
L 819.547935 158.46747 
L 819.695733 156.085226 
L 820.3664 155.974595 
L 820.514432 153.594814 
L 821.1851 153.485002 
L 821.333444 151.103146 
L 822.004112 150.994165 
L 822.152846 148.605854 
L 822.823513 148.497716 
L 822.972481 146.108486 
L 823.643227 146.001202 
L 823.792585 143.606767 
L 824.463331 143.50035 
L 824.483765 142.336713 
L 824.525258 146.541945 
L 824.751205 161.301419 
L 825.283668 161.194208 
L 825.431076 158.81848 
L 826.101588 158.712029 
L 826.249308 156.33312 
L 826.919976 156.222408 
L 827.068008 153.840872 
L 827.738676 153.730979 
L 827.88702 151.347345 
L 828.557687 151.238282 
L 828.706343 148.853085 
L 829.377011 148.744864 
L 829.525979 146.353767 
L 830.196725 146.246398 
L 830.346083 143.850069 
L 831.016828 143.743567 
L 831.166498 141.347485 
L 831.837322 141.23706 
L 831.987304 138.841834 
L 832.283134 138.942978 
L 832.550184 159.066123 
L 832.657894 158.959596 
L 832.805614 156.578972 
L 833.476281 156.46818 
L 833.624235 154.089906 
L 834.294903 153.979931 
L 834.443169 151.599461 
L 835.113837 151.490314 
L 835.262493 149.10326 
L 835.933161 148.994954 
L 836.082051 146.606856 
L 836.752718 146.4994 
L 836.901998 144.105964 
L 837.572744 143.999373 
L 837.722414 141.601274 
L 838.39316 141.490755 
L 838.543141 139.093487 
L 839.213965 138.983898 
L 839.364337 136.583314 
L 840.035083 136.474669 
L 840.074937 134.098478 
L 840.114948 138.365186 
L 840.349865 154.345264 
L 840.85659 154.235204 
L 841.004856 151.852899 
L 841.675446 151.743667 
L 841.824024 149.359675 
L 842.494614 149.251282 
L 842.643504 146.861257 
L 843.314249 146.753715 
L 843.463529 144.358322 
L 844.134275 144.251643 
L 844.283867 141.856369 
L 844.954691 141.745756 
L 845.104594 139.351207 
L 845.775418 139.241522 
L 845.925712 136.843546 
L 846.596536 136.734802 
L 846.747298 134.329419 
L 847.418043 134.221632 
L 847.569195 131.81433 
L 847.881872 131.915841 
L 848.148922 152.111604 
L 848.239941 152.002286 
L 848.388519 149.616397 
L 849.059108 149.507917 
L 849.20792 147.120859 
L 849.878666 147.013228 
L 850.027868 144.620695 
L 850.698614 144.513925 
L 850.848206 142.116593 
L 851.518951 142.005885 
L 851.668855 139.609251 
L 852.339601 139.49947 
L 852.489895 137.099377 
L 853.160719 136.990537 
L 853.311402 134.587694 
L 853.982148 134.479808 
L 854.133222 132.074932 
L 854.803968 131.968014 
L 854.955509 129.557228 
L 855.626411 129.44669 
L 855.667436 127.036866 
L 855.711034 131.001229 
L 855.948525 147.382523 
L 856.449088 147.274803 
L 856.59829 144.880268 
L 857.269036 144.773408 
L 857.41855 142.378861 
L 858.089374 142.268056 
L 858.2392 139.874102 
L 858.910023 139.764222 
L 859.060239 137.366699 
L 859.730985 137.257758 
L 859.881669 134.852673 
L 860.552414 134.744686 
L 860.703488 132.337536 
L 861.374234 132.230516 
L 861.525698 129.82203 
L 862.196599 129.711382 
L 862.348453 127.302342 
L 863.019355 127.192735 
L 863.171676 124.779371 
L 863.480609 124.881251 
L 863.74766 145.14997 
L 863.842422 145.043016 
L 863.991936 142.646364 
L 864.66276 142.535461 
L 864.812586 140.139375 
L 865.483331 140.029396 
L 865.633547 137.629708 
L 866.304371 137.520667 
L 866.454977 135.118082 
L 867.1258 135.009993 
L 867.276796 132.605227 
L 867.94762 132.498104 
L 868.099084 130.087268 
L 868.769907 129.976512 
L 868.921761 127.565089 
L 869.592585 127.455373 
L 869.744828 125.044115 
L 870.41573 124.935454 
L 870.56852 122.516158 
L 871.239344 122.408571 
L 871.279978 120.186373 
L 871.313906 124.504107 
L 871.547341 140.407194 
L 872.063347 140.297117 
L 872.213485 137.899991 
L 872.884308 137.79085 
L 873.034836 135.390714 
L 873.70566 135.282522 
L 873.856656 132.875427 
L 874.527479 132.768199 
L 874.678865 130.359617 
L 875.349767 130.248749 
L 875.501543 127.83946 
L 876.172444 127.72963 
L 876.324688 125.315851 
L 876.99559 125.207075 
L 877.148301 122.789701 
L 877.819203 122.681997 
L 877.972383 120.261939 
L 878.643362 120.150881 
L 878.79701 117.729109 
L 879.079347 117.831359 
L 879.346397 138.173455 
L 879.467834 138.064211 
L 879.618361 135.661802 
L 880.289185 135.553506 
L 880.440103 133.148767 
L 881.110927 133.041434 
L 881.262312 130.630465 
L 881.933214 130.519487 
L 882.084912 128.112357 
L 882.755814 128.002414 
L 882.907979 125.59067 
L 883.578803 125.481779 
L 883.731437 123.066311 
L 884.402338 122.958489 
L 884.555518 120.535758 
L 885.22642 120.429023 
L 885.380067 118.004491 
L 886.050969 117.89446 
L 886.205084 115.469114 
L 886.877702 115.358316 
L 886.878716 115.314573 
L 886.919585 118.370595 
L 887.146078 133.425792 
L 887.700925 133.318352 
L 887.852233 130.909598 
L 888.523057 130.798506 
L 888.674755 128.388889 
L 889.345578 128.278832 
L 889.497744 125.864559 
L 890.168646 125.755553 
L 890.321279 123.337516 
L 890.992181 123.229578 
L 891.145283 120.808684 
L 891.816184 120.701831 
L 891.969754 118.279005 
L 892.640656 118.168847 
L 892.794693 115.745072 
L 893.465673 115.636082 
L 893.620178 113.208001 
L 894.291236 113.100198 
L 894.446288 110.668926 
L 894.678085 110.771549 
L 894.945135 131.187391 
L 895.117189 131.080819 
L 895.268887 128.668689 
L 895.939711 128.558517 
L 896.091798 126.146238 
L 896.7627 126.037113 
L 896.915256 123.620942 
L 897.586157 123.512883 
L 897.739181 121.093723 
L 898.410083 120.986747 
L 898.563652 118.561108 
L 899.234554 118.450822 
L 899.388514 116.028555 
L 900.059493 115.919434 
L 900.213921 113.492718 
L 900.884979 113.384781 
L 901.039952 110.954728 
L 901.71101 110.843728 
L 901.866529 108.411518 
L 902.477454 108.514261 
L 902.72524 126.433225 
L 903.362292 126.323981 
L 903.51477 123.909639 
L 904.185671 123.801457 
L 904.338617 121.383996 
L 905.009519 121.276894 
L 905.16301 118.852815 
L 905.833912 118.742396 
L 905.987794 116.321556 
L 906.658695 116.212299 
L 906.813045 113.786865 
L 907.484025 113.67879 
L 907.638998 111.245596 
L 908.310056 111.138725 
L 908.465575 108.703272 
L 909.136633 108.593402 
L 909.292698 106.156892 
L 909.963834 106.048318 
L 910.120523 103.607801 
L 910.276823 103.710798 
L 910.543873 124.200661 
L 910.791425 124.092356 
L 910.94437 121.672117 
L 911.615272 121.564892 
L 911.768686 119.142407 
L 912.439587 119.031856 
L 912.593469 116.608104 
L 913.264371 116.498715 
L 913.41872 114.070317 
L 914.0897 113.962109 
L 914.244595 111.530174 
L 914.915653 111.423168 
L 915.071095 108.988827 
L 915.742152 108.878812 
L 915.89814 106.443262 
L 916.569275 106.334541 
L 916.725887 103.894824 
L 917.397022 103.787421 
L 917.554258 101.344884 
L 918.076191 101.448002 
L 918.232179 121.357111 
L 918.323977 119.43065 
L 919.049553 119.319968 
L 919.203356 116.897704 
L 919.874258 116.788181 
L 920.028529 114.361128 
L 920.699587 114.252784 
L 920.854405 111.822047 
L 921.525462 111.714902 
L 921.680826 109.281609 
L 922.351961 109.171447 
L 922.507871 106.736793 
L 923.178928 106.627922 
L 923.335462 104.18894 
L 924.006519 104.081384 
L 924.163677 101.639418 
L 924.834812 101.529116 
L 924.992594 99.085585 
L 925.663729 98.976701 
L 925.822213 96.529024 
L 925.87556 96.632398 
L 926.142533 117.196735 
L 926.493192 117.087074 
L 926.647386 114.661285 
L 927.318443 114.5528 
L 927.473183 112.123179 
L 928.144163 112.015891 
L 928.299448 109.583563 
L 928.970584 109.473249 
L 929.126415 107.039407 
L 929.797551 106.930381 
L 929.954006 104.492048 
L 930.625142 104.384335 
L 930.782221 101.942851 
L 931.453435 101.832382 
L 931.611138 99.389165 
L 932.282352 99.280111 
L 932.440757 96.832568 
L 933.111971 96.724956 
L 933.271 94.274671 
L 933.674929 94.378164 
L 933.940186 114.966276 
L 933.941433 114.896748 
L 934.096797 112.42911 
L 934.767777 112.321677 
L 934.922984 109.89028 
L 935.594042 109.779812 
L 935.749795 107.346747 
L 936.420853 107.237565 
L 936.57723 104.799845 
L 937.248366 104.691972 
L 937.405367 102.250935 
L 938.076581 102.140297 
L 938.234206 99.697357 
L 938.90542 99.588131 
L 939.063747 97.140685 
L 939.734961 97.032897 
L 939.893912 94.582526 
L 940.565281 94.472268 
L 940.724935 92.020636 
L 941.396304 91.911929 
L 941.458699 89.456857 
L 941.496214 92.459265 
L 941.741504 110.199619 
L 942.227951 110.088996 
L 942.383626 107.656697 
L 943.054762 107.547357 
L 943.211061 105.11024 
L 943.882119 105.002206 
L 944.039042 102.561605 
L 944.710256 102.450798 
L 944.867803 100.008123 
L 945.539017 99.898724 
L 945.697266 97.451364 
L 946.36848 97.3434 
L 946.527353 94.892931 
L 947.198645 94.782487 
L 947.35822 92.330569 
L 948.029511 92.221674 
L 948.189866 89.766117 
L 948.861236 89.658802 
L 949.022449 87.197678 
L 949.273667 87.30155 
L 949.540639 107.964472 
L 949.693585 107.854975 
L 949.849806 105.418506 
L 950.520942 105.310312 
L 950.677787 102.870193 
L 951.349001 102.759217 
L 951.50647 100.316854 
L 952.177606 100.207283 
L 952.335777 97.760056 
L 953.006991 97.651918 
L 953.165786 95.201398 
L 953.837077 95.09077 
L 953.996575 92.638615 
L 954.667944 92.529532 
L 954.828221 90.073542 
L 955.499591 89.966035 
L 955.660648 87.508052 
L 956.332096 87.398373 
L 956.369455 85.5972 
L 956.369455 85.5972 
" style="fill:none;stroke:#1f77b4;stroke-linecap:square;stroke-width:1.5;"/>
   </g>
   <g id="line2d_14">
    <path clip-path="url(#pefee9a79a7)" d="M 177.198545 464.037396 
L 177.307737 464.037396 
L 177.418878 468.101298 
L 185.107105 468.101298 
L 185.218246 461.313497 
L 192.906474 461.313497 
L 193.017615 456.88599 
L 200.705843 456.88599 
L 200.816984 452.446827 
L 208.505212 452.446827 
L 208.616353 449.100481 
L 216.304581 449.100481 
L 216.415722 445.744414 
L 224.10395 445.744414 
L 224.215091 441.303769 
L 231.903319 441.303769 
L 232.01446 437.954103 
L 239.702687 437.954103 
L 239.813828 434.598593 
L 247.502056 434.598593 
L 247.613197 430.144649 
L 255.301425 430.144649 
L 255.412566 425.689867 
L 263.100794 425.689867 
L 263.211935 422.33231 
L 270.900163 422.33231 
L 271.011304 418.967477 
L 278.699532 418.967477 
L 278.810673 414.493968 
L 286.498901 414.493968 
L 286.610042 411.129605 
L 294.298269 411.129605 
L 294.40941 407.762536 
L 302.097638 407.762536 
L 302.208779 403.283361 
L 309.897007 403.283361 
L 310.008148 398.793829 
L 317.696376 398.793829 
L 317.807517 395.586062 
L 325.495745 395.586062 
L 325.606886 392.043914 
L 333.295114 392.043914 
L 333.406255 387.546486 
L 341.094482 387.546486 
L 341.205623 384.171958 
L 348.893851 384.171958 
L 349.004992 380.792404 
L 356.69322 380.792404 
L 356.804361 376.294545 
L 364.492589 376.294545 
L 364.60373 372.930257 
L 372.291958 372.930257 
L 372.403099 369.552029 
L 380.091327 369.552029 
L 380.202468 365.047366 
L 387.890696 365.047366 
L 388.001837 360.539137 
L 395.690064 360.539137 
L 395.801205 358.294886 
L 403.489433 358.294886 
L 403.600574 353.772345 
L 411.288802 353.772345 
L 411.399943 349.246786 
L 419.088171 349.246786 
L 419.199312 345.858158 
L 426.88754 345.858158 
L 426.998681 342.457705 
L 434.686909 342.457705 
L 434.79805 337.913827 
L 442.486278 337.913827 
L 442.597419 334.506617 
L 450.285646 334.506617 
L 450.396787 331.095449 
L 458.085015 331.095449 
L 458.196156 326.541103 
L 465.884384 326.541103 
L 465.995525 323.137432 
L 473.683753 323.137432 
L 473.794894 319.717279 
L 481.483122 319.717279 
L 481.594263 315.147626 
L 489.282491 315.147626 
L 489.393632 311.732869 
L 497.08186 311.732869 
L 497.193001 308.303985 
L 504.881228 308.303985 
L 504.992369 303.723754 
L 512.680597 303.723754 
L 512.791738 300.308491 
L 520.479966 300.308491 
L 520.591107 296.888328 
L 528.279335 296.888328 
L 528.390476 292.303249 
L 536.078704 292.303249 
L 536.189845 288.885134 
L 543.878073 288.885134 
L 543.989214 285.459318 
L 551.677441 285.459318 
L 551.788582 280.858823 
L 559.47681 280.858823 
L 559.587951 277.428724 
L 567.276179 277.428724 
L 567.38732 273.996102 
L 575.075548 273.996102 
L 575.186689 269.380281 
L 582.874917 269.380281 
L 582.986058 267.124003 
L 590.674286 267.124003 
L 590.785427 262.504472 
L 598.473655 262.504472 
L 598.584796 258.270912 
L 606.273023 258.270912 
L 606.384164 255.616006 
L 614.072392 255.616006 
L 614.183533 250.988353 
L 621.871761 250.988353 
L 621.982902 247.552751 
L 629.67113 247.552751 
L 629.782271 244.111895 
L 637.470499 244.111895 
L 637.58164 239.472537 
L 645.269868 239.472537 
L 645.381009 236.804226 
L 653.069237 236.804226 
L 653.180378 232.55599 
L 660.868605 232.55599 
L 660.979746 228.744482 
L 668.667974 228.744482 
L 668.779115 225.639666 
L 676.467343 225.639666 
L 676.578484 220.973407 
L 684.266712 220.973407 
L 684.377853 217.517429 
L 692.066081 217.517429 
L 692.177222 214.049983 
L 699.86545 214.049983 
L 699.976591 209.788124 
L 707.664818 209.788124 
L 707.775959 207.127338 
L 715.464187 207.127338 
L 715.575328 202.443909 
L 723.263556 202.443909 
L 723.374697 199.489889 
L 731.062925 199.489889 
L 731.174066 195.498676 
L 738.862294 195.498676 
L 738.973435 192.028828 
L 746.661663 192.028828 
L 746.772804 188.555021 
L 754.461032 188.555021 
L 754.572173 183.854796 
L 762.2604 183.854796 
L 762.371541 181.599975 
L 770.059769 181.599975 
L 770.17091 176.886285 
L 777.859138 176.886285 
L 777.970279 174.487047 
L 785.658507 174.487047 
L 785.769648 169.906739 
L 793.457876 169.906739 
L 793.569017 166.427007 
L 801.257245 166.427007 
L 801.368386 162.930364 
L 809.056614 162.930364 
L 809.167755 159.443166 
L 816.855982 159.443166 
L 816.967123 155.947894 
L 824.655351 155.947894 
L 824.766492 152.251032 
L 832.45472 152.251032 
L 832.565861 148.953979 
L 840.254089 148.953979 
L 840.36523 144.449752 
L 848.053458 144.449752 
L 848.164599 141.962967 
L 855.852827 141.962967 
L 855.963968 137.261484 
L 863.652196 137.261484 
L 863.763337 134.96467 
L 871.451564 134.96467 
L 871.562705 130.690604 
L 879.250933 130.690604 
L 879.362074 127.951282 
L 887.050302 127.951282 
L 887.161443 124.447453 
L 894.849671 124.447453 
L 894.960812 120.928159 
L 902.64904 120.928159 
L 902.760181 117.422372 
L 910.448409 117.422372 
L 910.55955 113.904231 
L 918.247777 113.904231 
L 918.358918 110.958127 
L 926.047146 110.958127 
L 926.158287 106.862879 
L 933.846515 106.862879 
L 933.957656 104.620473 
L 941.645884 104.620473 
L 941.757025 99.828238 
L 949.445253 99.828238 
L 949.556394 97.581075 
L 956.369455 97.581075 
L 956.369455 97.581075 
" style="fill:none;stroke:#ff7f0e;stroke-linecap:square;stroke-width:1.5;"/>
   </g>
   <g id="patch_3">
    <path d="M 138.24 491.4936 
L 138.24 66.2688 
" style="fill:none;stroke:#000000;stroke-linecap:square;stroke-linejoin:miter;stroke-width:0.8;"/>
   </g>
   <g id="patch_4">
    <path d="M 995.328 491.4936 
L 995.328 66.2688 
" style="fill:none;stroke:#000000;stroke-linecap:square;stroke-linejoin:miter;stroke-width:0.8;"/>
   </g>
   <g id="patch_5">
    <path d="M 138.24 491.4936 
L 995.328 491.4936 
" style="fill:none;stroke:#000000;stroke-linecap:square;stroke-linejoin:miter;stroke-width:0.8;"/>
   </g>
   <g id="patch_6">
    <path d="M 138.24 66.2688 
L 995.328 66.2688 
" style="fill:none;stroke:#000000;stroke-linecap:square;stroke-linejoin:miter;stroke-width:0.8;"/>
   </g>
  </g>
 </g>
 <defs>
  <clipPath id="pefee9a79a7">
   <rect height="425.2248" width="857.088" x="138.24" y="66.2688"/>
  </clipPath>
 </defs>
</svg>
